<mxfile host="app.diagrams.net" modified="2021-08-01T10:09:56.283Z" agent="5.0 (Windows NT 10.0; Win64; x64) AppleWebKit/537.36 (KHTML, like Gecko) Chrome/91.0.4472.124 Safari/537.36" etag="NW1HoTX644aTM0QbpiUM" version="14.9.2" type="github" pages="3">
  <diagram id="ZpSXVwY4Fpyx30kcCnn2" name="new">
    <mxGraphModel dx="2390" dy="644" grid="1" gridSize="10" guides="1" tooltips="1" connect="1" arrows="1" fold="1" page="1" pageScale="1" pageWidth="1169" pageHeight="827" math="0" shadow="0">
      <root>
        <mxCell id="0" />
        <mxCell id="1" parent="0" />
        <mxCell id="7tf9QUAhqpp5ZMHyf5yW-3" style="edgeStyle=orthogonalEdgeStyle;rounded=0;orthogonalLoop=1;jettySize=auto;html=1;exitX=0.5;exitY=1;exitDx=0;exitDy=0;" parent="1" source="7tf9QUAhqpp5ZMHyf5yW-1" target="7tf9QUAhqpp5ZMHyf5yW-2" edge="1">
          <mxGeometry relative="1" as="geometry" />
        </mxCell>
        <mxCell id="7tf9QUAhqpp5ZMHyf5yW-1" value="entity" style="rounded=1;whiteSpace=wrap;html=1;" parent="1" vertex="1">
          <mxGeometry x="747" y="58" width="120" height="60" as="geometry" />
        </mxCell>
        <mxCell id="7tf9QUAhqpp5ZMHyf5yW-6" style="rounded=0;orthogonalLoop=1;jettySize=auto;html=1;exitX=0;exitY=0.5;exitDx=0;exitDy=0;entryX=0.578;entryY=0.013;entryDx=0;entryDy=0;entryPerimeter=0;" parent="1" source="7tf9QUAhqpp5ZMHyf5yW-2" target="7tf9QUAhqpp5ZMHyf5yW-4" edge="1">
          <mxGeometry relative="1" as="geometry">
            <Array as="points">
              <mxPoint x="523" y="220" />
            </Array>
          </mxGeometry>
        </mxCell>
        <mxCell id="hiO9VmSxXJZ0S8sMKiFD-1" value="Persist In Time" style="edgeLabel;html=1;align=center;verticalAlign=middle;resizable=0;points=[];" parent="7tf9QUAhqpp5ZMHyf5yW-6" vertex="1" connectable="0">
          <mxGeometry x="0.0533" y="-3" relative="1" as="geometry">
            <mxPoint as="offset" />
          </mxGeometry>
        </mxCell>
        <mxCell id="7tf9QUAhqpp5ZMHyf5yW-7" style="rounded=0;orthogonalLoop=1;jettySize=auto;html=1;exitX=1;exitY=0.5;exitDx=0;exitDy=0;entryX=0.5;entryY=0;entryDx=0;entryDy=0;" parent="1" source="7tf9QUAhqpp5ZMHyf5yW-2" target="7tf9QUAhqpp5ZMHyf5yW-5" edge="1">
          <mxGeometry relative="1" as="geometry" />
        </mxCell>
        <mxCell id="hiO9VmSxXJZ0S8sMKiFD-2" value="No" style="edgeLabel;html=1;align=center;verticalAlign=middle;resizable=0;points=[];" parent="7tf9QUAhqpp5ZMHyf5yW-7" vertex="1" connectable="0">
          <mxGeometry x="-0.1101" relative="1" as="geometry">
            <mxPoint x="11" y="4" as="offset" />
          </mxGeometry>
        </mxCell>
        <mxCell id="Zn6khmz5GUfmGXHjrIoc-1" value="Unfold In Time" style="edgeLabel;html=1;align=center;verticalAlign=middle;resizable=0;points=[];" parent="7tf9QUAhqpp5ZMHyf5yW-7" vertex="1" connectable="0">
          <mxGeometry x="-0.0552" y="-3" relative="1" as="geometry">
            <mxPoint as="offset" />
          </mxGeometry>
        </mxCell>
        <mxCell id="7tf9QUAhqpp5ZMHyf5yW-2" value="&lt;font&gt;&lt;font style=&quot;font-size: 12px&quot;&gt;Does this &lt;br&gt;entity persist in time or unfold in time?&amp;nbsp;&lt;/font&gt;&lt;br&gt;&lt;/font&gt;" style="rhombus;whiteSpace=wrap;html=1;strokeColor=#007FFF;" parent="1" vertex="1">
          <mxGeometry x="722" y="138" width="170" height="90" as="geometry" />
        </mxCell>
        <mxCell id="7tf9QUAhqpp5ZMHyf5yW-10" style="edgeStyle=none;rounded=0;orthogonalLoop=1;jettySize=auto;html=1;exitX=0.5;exitY=1;exitDx=0;exitDy=0;entryX=0.5;entryY=0;entryDx=0;entryDy=0;" parent="1" source="7tf9QUAhqpp5ZMHyf5yW-4" target="7tf9QUAhqpp5ZMHyf5yW-9" edge="1">
          <mxGeometry relative="1" as="geometry" />
        </mxCell>
        <mxCell id="7tf9QUAhqpp5ZMHyf5yW-4" value="continuant" style="rounded=1;whiteSpace=wrap;html=1;" parent="1" vertex="1">
          <mxGeometry x="272" y="258" width="120" height="60" as="geometry" />
        </mxCell>
        <mxCell id="7tf9QUAhqpp5ZMHyf5yW-12" style="edgeStyle=none;rounded=0;orthogonalLoop=1;jettySize=auto;html=1;exitX=0.5;exitY=1;exitDx=0;exitDy=0;" parent="1" source="7tf9QUAhqpp5ZMHyf5yW-5" target="7tf9QUAhqpp5ZMHyf5yW-11" edge="1">
          <mxGeometry relative="1" as="geometry" />
        </mxCell>
        <mxCell id="7tf9QUAhqpp5ZMHyf5yW-5" value="occurrent" style="rounded=1;whiteSpace=wrap;html=1;" parent="1" vertex="1">
          <mxGeometry x="1212" y="258" width="120" height="60" as="geometry" />
        </mxCell>
        <mxCell id="7tf9QUAhqpp5ZMHyf5yW-8" value="generically dependent continuant" style="rounded=1;whiteSpace=wrap;html=1;" parent="1" vertex="1">
          <mxGeometry x="602" y="728" width="120" height="60" as="geometry" />
        </mxCell>
        <mxCell id="7tf9QUAhqpp5ZMHyf5yW-15" style="edgeStyle=none;rounded=0;orthogonalLoop=1;jettySize=auto;html=1;exitX=1;exitY=0.5;exitDx=0;exitDy=0;entryX=0.5;entryY=0;entryDx=0;entryDy=0;" parent="1" source="hiO9VmSxXJZ0S8sMKiFD-8" target="7tf9QUAhqpp5ZMHyf5yW-8" edge="1">
          <mxGeometry relative="1" as="geometry" />
        </mxCell>
        <mxCell id="hiO9VmSxXJZ0S8sMKiFD-12" value="Yes" style="edgeLabel;html=1;align=center;verticalAlign=middle;resizable=0;points=[];" parent="7tf9QUAhqpp5ZMHyf5yW-15" vertex="1" connectable="0">
          <mxGeometry x="-0.0799" y="-1" relative="1" as="geometry">
            <mxPoint as="offset" />
          </mxGeometry>
        </mxCell>
        <mxCell id="7tf9QUAhqpp5ZMHyf5yW-17" style="edgeStyle=none;rounded=0;orthogonalLoop=1;jettySize=auto;html=1;exitX=0.5;exitY=1;exitDx=0;exitDy=0;" parent="1" source="7tf9QUAhqpp5ZMHyf5yW-9" target="hiO9VmSxXJZ0S8sMKiFD-8" edge="1">
          <mxGeometry relative="1" as="geometry">
            <mxPoint x="67" y="438" as="sourcePoint" />
          </mxGeometry>
        </mxCell>
        <mxCell id="hiO9VmSxXJZ0S8sMKiFD-11" value="Yes" style="edgeLabel;html=1;align=center;verticalAlign=middle;resizable=0;points=[];" parent="7tf9QUAhqpp5ZMHyf5yW-17" vertex="1" connectable="0">
          <mxGeometry x="-0.2623" y="3" relative="1" as="geometry">
            <mxPoint x="-3" y="11" as="offset" />
          </mxGeometry>
        </mxCell>
        <mxCell id="7tf9QUAhqpp5ZMHyf5yW-9" value="Is this entity &lt;br&gt;a property of another&amp;nbsp;entity &lt;br&gt;or depends on at least one other entity?" style="rhombus;whiteSpace=wrap;html=1;strokeColor=#007FFF;" parent="1" vertex="1">
          <mxGeometry x="247" y="348" width="170" height="80" as="geometry" />
        </mxCell>
        <mxCell id="7tf9QUAhqpp5ZMHyf5yW-90" value="inhabits" style="edgeStyle=none;rounded=0;orthogonalLoop=1;jettySize=auto;html=1;entryX=0.5;entryY=0;entryDx=0;entryDy=0;exitX=0;exitY=0.5;exitDx=0;exitDy=0;" parent="1" source="7tf9QUAhqpp5ZMHyf5yW-11" target="SgxLUe1fFd-I8KDMhxSj-47" edge="1">
          <mxGeometry relative="1" as="geometry">
            <mxPoint x="1203" y="408" as="sourcePoint" />
          </mxGeometry>
        </mxCell>
        <mxCell id="7tf9QUAhqpp5ZMHyf5yW-91" value="no" style="edgeStyle=none;rounded=0;orthogonalLoop=1;jettySize=auto;html=1;entryX=0.5;entryY=0;entryDx=0;entryDy=0;exitX=1;exitY=1;exitDx=0;exitDy=0;" parent="1" source="SgxLUe1fFd-I8KDMhxSj-47" target="7tf9QUAhqpp5ZMHyf5yW-87" edge="1">
          <mxGeometry relative="1" as="geometry" />
        </mxCell>
        <mxCell id="7tf9QUAhqpp5ZMHyf5yW-92" value="portion of" style="edgeStyle=none;rounded=0;orthogonalLoop=1;jettySize=auto;html=1;entryX=0.5;entryY=0;entryDx=0;entryDy=0;exitX=0.5;exitY=1;exitDx=0;exitDy=0;" parent="1" edge="1">
          <mxGeometry x="-0.1429" relative="1" as="geometry">
            <mxPoint x="1272" y="428" as="sourcePoint" />
            <mxPoint x="1272" y="498" as="targetPoint" />
            <mxPoint as="offset" />
          </mxGeometry>
        </mxCell>
        <mxCell id="7tf9QUAhqpp5ZMHyf5yW-93" value="projection of" style="edgeStyle=none;rounded=0;orthogonalLoop=1;jettySize=auto;html=1;entryX=0.5;entryY=0;entryDx=0;entryDy=0;exitX=1;exitY=0.5;exitDx=0;exitDy=0;" parent="1" source="7tf9QUAhqpp5ZMHyf5yW-11" target="7tf9QUAhqpp5ZMHyf5yW-89" edge="1">
          <mxGeometry x="-0.0499" y="3" relative="1" as="geometry">
            <mxPoint as="offset" />
          </mxGeometry>
        </mxCell>
        <mxCell id="7tf9QUAhqpp5ZMHyf5yW-11" value="What is&lt;br&gt;this entity&#39;s&lt;br&gt;relation to the universal&lt;br&gt;spatiotemporal&lt;br&gt;region?" style="rhombus;whiteSpace=wrap;html=1;strokeColor=#007FFF;" parent="1" vertex="1">
          <mxGeometry x="1187" y="348" width="170" height="80" as="geometry" />
        </mxCell>
        <mxCell id="7tf9QUAhqpp5ZMHyf5yW-95" style="edgeStyle=none;rounded=0;orthogonalLoop=1;jettySize=auto;html=1;exitX=0.5;exitY=1;exitDx=0;exitDy=0;entryX=0.5;entryY=0;entryDx=0;entryDy=0;" parent="1" source="7tf9QUAhqpp5ZMHyf5yW-86" target="7tf9QUAhqpp5ZMHyf5yW-94" edge="1">
          <mxGeometry relative="1" as="geometry" />
        </mxCell>
        <mxCell id="Zn6khmz5GUfmGXHjrIoc-79" value="No" style="edgeStyle=none;rounded=0;orthogonalLoop=1;jettySize=auto;html=1;exitX=1;exitY=1;exitDx=0;exitDy=0;entryX=0.5;entryY=0;entryDx=0;entryDy=0;" parent="1" source="7tf9QUAhqpp5ZMHyf5yW-94" target="C-2I8JzMY-JGrmDNcIf2-1" edge="1">
          <mxGeometry relative="1" as="geometry" />
        </mxCell>
        <mxCell id="7tf9QUAhqpp5ZMHyf5yW-86" value="process" style="rounded=1;whiteSpace=wrap;html=1;" parent="1" vertex="1">
          <mxGeometry x="1053" y="616" width="120" height="60" as="geometry" />
        </mxCell>
        <mxCell id="7tf9QUAhqpp5ZMHyf5yW-87" value="process boundary" style="rounded=1;whiteSpace=wrap;html=1;" parent="1" vertex="1">
          <mxGeometry x="776" y="616" width="120" height="60" as="geometry" />
        </mxCell>
        <mxCell id="7tf9QUAhqpp5ZMHyf5yW-88" value="spatiotemporal region" style="rounded=1;whiteSpace=wrap;html=1;" parent="1" vertex="1">
          <mxGeometry x="1212" y="498" width="120" height="60" as="geometry" />
        </mxCell>
        <mxCell id="7tf9QUAhqpp5ZMHyf5yW-101" style="edgeStyle=none;rounded=0;orthogonalLoop=1;jettySize=auto;html=1;exitX=0.5;exitY=1;exitDx=0;exitDy=0;" parent="1" source="7tf9QUAhqpp5ZMHyf5yW-89" target="7tf9QUAhqpp5ZMHyf5yW-100" edge="1">
          <mxGeometry relative="1" as="geometry" />
        </mxCell>
        <mxCell id="7tf9QUAhqpp5ZMHyf5yW-89" value="temporal region" style="rounded=1;whiteSpace=wrap;html=1;" parent="1" vertex="1">
          <mxGeometry x="1505" y="498" width="120" height="60" as="geometry" />
        </mxCell>
        <mxCell id="7tf9QUAhqpp5ZMHyf5yW-98" style="edgeStyle=none;rounded=0;orthogonalLoop=1;jettySize=auto;html=1;exitX=0;exitY=1;exitDx=0;exitDy=0;entryX=0.5;entryY=0;entryDx=0;entryDy=0;" parent="1" source="7tf9QUAhqpp5ZMHyf5yW-94" target="7tf9QUAhqpp5ZMHyf5yW-96" edge="1">
          <mxGeometry relative="1" as="geometry">
            <mxPoint x="833" y="814" as="sourcePoint" />
            <Array as="points" />
          </mxGeometry>
        </mxCell>
        <mxCell id="SgxLUe1fFd-I8KDMhxSj-45" value="Yes" style="edgeLabel;html=1;align=center;verticalAlign=middle;resizable=0;points=[];" parent="7tf9QUAhqpp5ZMHyf5yW-98" vertex="1" connectable="0">
          <mxGeometry x="0.3362" y="2" relative="1" as="geometry">
            <mxPoint x="-2" y="-10" as="offset" />
          </mxGeometry>
        </mxCell>
        <mxCell id="7tf9QUAhqpp5ZMHyf5yW-94" value="&lt;font style=&quot;font-size: 11px&quot;&gt;Is this&lt;br&gt;process the sum of&lt;br&gt;the totality of processes in a material entity&#39;s spatiotemporal&lt;br&gt;region?&lt;/font&gt;" style="rhombus;whiteSpace=wrap;html=1;strokeColor=#007FFF;" parent="1" vertex="1">
          <mxGeometry x="1013" y="708" width="200" height="80" as="geometry" />
        </mxCell>
        <mxCell id="7tf9QUAhqpp5ZMHyf5yW-96" value="history" style="rounded=1;whiteSpace=wrap;html=1;" parent="1" vertex="1">
          <mxGeometry x="913" y="838" width="120" height="60" as="geometry" />
        </mxCell>
        <mxCell id="7tf9QUAhqpp5ZMHyf5yW-104" style="edgeStyle=none;rounded=0;orthogonalLoop=1;jettySize=auto;html=1;exitX=0;exitY=1;exitDx=0;exitDy=0;entryX=0.5;entryY=0;entryDx=0;entryDy=0;" parent="1" source="7tf9QUAhqpp5ZMHyf5yW-100" target="7tf9QUAhqpp5ZMHyf5yW-102" edge="1">
          <mxGeometry relative="1" as="geometry">
            <mxPoint x="1522.5" y="688" as="sourcePoint" />
          </mxGeometry>
        </mxCell>
        <mxCell id="SgxLUe1fFd-I8KDMhxSj-46" value="1" style="edgeLabel;html=1;align=center;verticalAlign=middle;resizable=0;points=[];" parent="7tf9QUAhqpp5ZMHyf5yW-104" vertex="1" connectable="0">
          <mxGeometry x="-0.1044" y="1" relative="1" as="geometry">
            <mxPoint as="offset" />
          </mxGeometry>
        </mxCell>
        <mxCell id="7tf9QUAhqpp5ZMHyf5yW-105" value="0" style="edgeStyle=none;rounded=0;orthogonalLoop=1;jettySize=auto;html=1;exitX=1;exitY=1;exitDx=0;exitDy=0;entryX=0.5;entryY=0;entryDx=0;entryDy=0;" parent="1" source="7tf9QUAhqpp5ZMHyf5yW-100" target="7tf9QUAhqpp5ZMHyf5yW-103" edge="1">
          <mxGeometry relative="1" as="geometry">
            <mxPoint x="1607.5" y="688" as="sourcePoint" />
          </mxGeometry>
        </mxCell>
        <mxCell id="7tf9QUAhqpp5ZMHyf5yW-100" value="&lt;span&gt;How many&lt;/span&gt;&lt;br&gt;&lt;span&gt;dimensions does this&lt;/span&gt;&lt;br&gt;&lt;span&gt;entity have?&lt;/span&gt;" style="rhombus;whiteSpace=wrap;html=1;strokeColor=#007FFF;" parent="1" vertex="1">
          <mxGeometry x="1480" y="606" width="170" height="80" as="geometry" />
        </mxCell>
        <mxCell id="7tf9QUAhqpp5ZMHyf5yW-102" value="one-dimensional temporal region" style="rounded=1;whiteSpace=wrap;html=1;" parent="1" vertex="1">
          <mxGeometry x="1390" y="728" width="120" height="60" as="geometry" />
        </mxCell>
        <mxCell id="7tf9QUAhqpp5ZMHyf5yW-103" value="zero-dimensional temporal region" style="rounded=1;whiteSpace=wrap;html=1;" parent="1" vertex="1">
          <mxGeometry x="1605" y="728" width="120" height="60" as="geometry" />
        </mxCell>
        <mxCell id="hiO9VmSxXJZ0S8sMKiFD-5" value="" style="group" parent="1" vertex="1" connectable="0">
          <mxGeometry x="-1130" y="520" width="1130" height="872" as="geometry" />
        </mxCell>
        <mxCell id="7tf9QUAhqpp5ZMHyf5yW-13" value="independent continuant" style="rounded=1;whiteSpace=wrap;html=1;" parent="hiO9VmSxXJZ0S8sMKiFD-5" vertex="1">
          <mxGeometry x="637" width="120" height="60" as="geometry" />
        </mxCell>
        <mxCell id="7tf9QUAhqpp5ZMHyf5yW-18" value="immaterial entity" style="rounded=1;whiteSpace=wrap;html=1;" parent="hiO9VmSxXJZ0S8sMKiFD-5" vertex="1">
          <mxGeometry x="380" y="230" width="120" height="60" as="geometry" />
        </mxCell>
        <mxCell id="7tf9QUAhqpp5ZMHyf5yW-19" value="material entity" style="rounded=1;whiteSpace=wrap;html=1;" parent="hiO9VmSxXJZ0S8sMKiFD-5" vertex="1">
          <mxGeometry x="880" y="230" width="120" height="60" as="geometry" />
        </mxCell>
        <mxCell id="7tf9QUAhqpp5ZMHyf5yW-22" style="edgeStyle=none;rounded=0;orthogonalLoop=1;jettySize=auto;html=1;exitX=0;exitY=1;exitDx=0;exitDy=0;entryX=0.5;entryY=0;entryDx=0;entryDy=0;" parent="hiO9VmSxXJZ0S8sMKiFD-5" source="7tf9QUAhqpp5ZMHyf5yW-20" target="7tf9QUAhqpp5ZMHyf5yW-18" edge="1">
          <mxGeometry relative="1" as="geometry">
            <mxPoint x="650.5" y="190" as="sourcePoint" />
          </mxGeometry>
        </mxCell>
        <mxCell id="SgxLUe1fFd-I8KDMhxSj-9" value="Never" style="edgeLabel;html=1;align=center;verticalAlign=middle;resizable=0;points=[];" parent="7tf9QUAhqpp5ZMHyf5yW-22" vertex="1" connectable="0">
          <mxGeometry x="-0.1891" y="-1" relative="1" as="geometry">
            <mxPoint as="offset" />
          </mxGeometry>
        </mxCell>
        <mxCell id="7tf9QUAhqpp5ZMHyf5yW-23" style="edgeStyle=none;rounded=0;orthogonalLoop=1;jettySize=auto;html=1;exitX=1;exitY=1;exitDx=0;exitDy=0;entryX=0.5;entryY=0;entryDx=0;entryDy=0;" parent="hiO9VmSxXJZ0S8sMKiFD-5" source="7tf9QUAhqpp5ZMHyf5yW-20" target="7tf9QUAhqpp5ZMHyf5yW-19" edge="1">
          <mxGeometry relative="1" as="geometry">
            <mxPoint x="743.5000000000009" y="190" as="sourcePoint" />
          </mxGeometry>
        </mxCell>
        <mxCell id="SgxLUe1fFd-I8KDMhxSj-10" value="Always" style="edgeLabel;html=1;align=center;verticalAlign=middle;resizable=0;points=[];" parent="7tf9QUAhqpp5ZMHyf5yW-23" vertex="1" connectable="0">
          <mxGeometry x="-0.1461" y="-1" relative="1" as="geometry">
            <mxPoint x="3" as="offset" />
          </mxGeometry>
        </mxCell>
        <mxCell id="7tf9QUAhqpp5ZMHyf5yW-20" value="&lt;span&gt;When&lt;br&gt;does&amp;nbsp;&lt;/span&gt;&lt;span&gt;this entity have&lt;/span&gt;&lt;br&gt;&lt;span&gt;some portion of&amp;nbsp;matter as a&lt;/span&gt;&lt;br&gt;&lt;span&gt;continuant&lt;/span&gt;&lt;br&gt;&lt;span&gt;part?&lt;/span&gt;" style="rhombus;whiteSpace=wrap;html=1;strokeColor=#007FFF;" parent="hiO9VmSxXJZ0S8sMKiFD-5" vertex="1">
          <mxGeometry x="604" y="108" width="186" height="80" as="geometry" />
        </mxCell>
        <mxCell id="7tf9QUAhqpp5ZMHyf5yW-21" style="edgeStyle=none;rounded=0;orthogonalLoop=1;jettySize=auto;html=1;exitX=0.5;exitY=1;exitDx=0;exitDy=0;entryX=0.5;entryY=0;entryDx=0;entryDy=0;" parent="hiO9VmSxXJZ0S8sMKiFD-5" source="7tf9QUAhqpp5ZMHyf5yW-13" target="7tf9QUAhqpp5ZMHyf5yW-20" edge="1">
          <mxGeometry relative="1" as="geometry" />
        </mxCell>
        <mxCell id="7tf9QUAhqpp5ZMHyf5yW-30" value="&lt;font&gt;&lt;font style=&quot;font-size: 6px&quot;&gt;&lt;br&gt;&lt;/font&gt;&lt;font style=&quot;font-size: 12px&quot;&gt;Is this entity&#39;s&lt;br&gt;location determined relative&lt;br&gt;to some material&lt;br&gt;entity?&lt;/font&gt;&lt;/font&gt;" style="rhombus;whiteSpace=wrap;html=1;strokeColor=#007FFF;" parent="hiO9VmSxXJZ0S8sMKiFD-5" vertex="1">
          <mxGeometry x="355" y="330" width="170" height="80" as="geometry" />
        </mxCell>
        <mxCell id="7tf9QUAhqpp5ZMHyf5yW-31" style="edgeStyle=none;rounded=0;orthogonalLoop=1;jettySize=auto;html=1;exitX=0.5;exitY=1;exitDx=0;exitDy=0;entryX=0.5;entryY=0;entryDx=0;entryDy=0;" parent="hiO9VmSxXJZ0S8sMKiFD-5" source="7tf9QUAhqpp5ZMHyf5yW-18" target="7tf9QUAhqpp5ZMHyf5yW-30" edge="1">
          <mxGeometry relative="1" as="geometry" />
        </mxCell>
        <mxCell id="7tf9QUAhqpp5ZMHyf5yW-32" value="continuant fiat boundary" style="rounded=1;whiteSpace=wrap;html=1;" parent="hiO9VmSxXJZ0S8sMKiFD-5" vertex="1">
          <mxGeometry x="143" y="592" width="119" height="60" as="geometry" />
        </mxCell>
        <mxCell id="7tf9QUAhqpp5ZMHyf5yW-35" style="edgeStyle=none;rounded=0;orthogonalLoop=1;jettySize=auto;html=1;exitX=0;exitY=1;exitDx=0;exitDy=0;entryX=0.5;entryY=0;entryDx=0;entryDy=0;" parent="hiO9VmSxXJZ0S8sMKiFD-5" source="7tf9QUAhqpp5ZMHyf5yW-30" target="SgxLUe1fFd-I8KDMhxSj-28" edge="1">
          <mxGeometry relative="1" as="geometry">
            <mxPoint x="280" y="460" as="targetPoint" />
          </mxGeometry>
        </mxCell>
        <mxCell id="SgxLUe1fFd-I8KDMhxSj-27" value="Yes" style="edgeLabel;html=1;align=center;verticalAlign=middle;resizable=0;points=[];" parent="7tf9QUAhqpp5ZMHyf5yW-35" vertex="1" connectable="0">
          <mxGeometry x="-0.8091" relative="1" as="geometry">
            <mxPoint x="-73" y="33" as="offset" />
          </mxGeometry>
        </mxCell>
        <mxCell id="7tf9QUAhqpp5ZMHyf5yW-33" value="site" style="rounded=1;whiteSpace=wrap;html=1;" parent="hiO9VmSxXJZ0S8sMKiFD-5" vertex="1">
          <mxGeometry x="380" y="592" width="120" height="60" as="geometry" />
        </mxCell>
        <mxCell id="7tf9QUAhqpp5ZMHyf5yW-36" style="edgeStyle=none;rounded=0;orthogonalLoop=1;jettySize=auto;html=1;exitX=1;exitY=1;exitDx=0;exitDy=0;entryX=0.5;entryY=0;entryDx=0;entryDy=0;" parent="hiO9VmSxXJZ0S8sMKiFD-5" source="SgxLUe1fFd-I8KDMhxSj-28" target="7tf9QUAhqpp5ZMHyf5yW-33" edge="1">
          <mxGeometry relative="1" as="geometry" />
        </mxCell>
        <mxCell id="SgxLUe1fFd-I8KDMhxSj-34" value="3" style="edgeLabel;html=1;align=center;verticalAlign=middle;resizable=0;points=[];" parent="7tf9QUAhqpp5ZMHyf5yW-36" vertex="1" connectable="0">
          <mxGeometry x="0.0589" y="-1" relative="1" as="geometry">
            <mxPoint x="-3" y="-3" as="offset" />
          </mxGeometry>
        </mxCell>
        <mxCell id="7tf9QUAhqpp5ZMHyf5yW-34" value="spatial region" style="rounded=1;whiteSpace=wrap;html=1;" parent="hiO9VmSxXJZ0S8sMKiFD-5" vertex="1">
          <mxGeometry x="574.5" y="592" width="119" height="60" as="geometry" />
        </mxCell>
        <mxCell id="7tf9QUAhqpp5ZMHyf5yW-37" style="edgeStyle=none;rounded=0;orthogonalLoop=1;jettySize=auto;html=1;exitX=1;exitY=1;exitDx=0;exitDy=0;entryX=0.5;entryY=0;entryDx=0;entryDy=0;" parent="hiO9VmSxXJZ0S8sMKiFD-5" source="7tf9QUAhqpp5ZMHyf5yW-30" target="SgxLUe1fFd-I8KDMhxSj-30" edge="1">
          <mxGeometry relative="1" as="geometry" />
        </mxCell>
        <mxCell id="SgxLUe1fFd-I8KDMhxSj-26" value="No" style="edgeLabel;html=1;align=center;verticalAlign=middle;resizable=0;points=[];" parent="7tf9QUAhqpp5ZMHyf5yW-37" vertex="1" connectable="0">
          <mxGeometry x="-0.1519" y="3" relative="1" as="geometry">
            <mxPoint x="14" y="13" as="offset" />
          </mxGeometry>
        </mxCell>
        <mxCell id="7tf9QUAhqpp5ZMHyf5yW-38" value="" style="rhombus;whiteSpace=wrap;html=1;" parent="hiO9VmSxXJZ0S8sMKiFD-5" vertex="1">
          <mxGeometry x="118" y="702" width="169" height="80" as="geometry" />
        </mxCell>
        <mxCell id="7tf9QUAhqpp5ZMHyf5yW-39" style="edgeStyle=none;rounded=0;orthogonalLoop=1;jettySize=auto;html=1;exitX=0.5;exitY=1;exitDx=0;exitDy=0;entryX=0.5;entryY=0;entryDx=0;entryDy=0;" parent="hiO9VmSxXJZ0S8sMKiFD-5" source="7tf9QUAhqpp5ZMHyf5yW-32" target="7tf9QUAhqpp5ZMHyf5yW-38" edge="1">
          <mxGeometry relative="1" as="geometry" />
        </mxCell>
        <mxCell id="7tf9QUAhqpp5ZMHyf5yW-41" value="one-dimensional continuant fiat boundary" style="rounded=1;whiteSpace=wrap;html=1;" parent="hiO9VmSxXJZ0S8sMKiFD-5" vertex="1">
          <mxGeometry x="143" y="832" width="119" height="60" as="geometry" />
        </mxCell>
        <mxCell id="7tf9QUAhqpp5ZMHyf5yW-44" style="edgeStyle=none;rounded=0;orthogonalLoop=1;jettySize=auto;html=1;exitX=0.5;exitY=1;exitDx=0;exitDy=0;entryX=0.5;entryY=0;entryDx=0;entryDy=0;" parent="hiO9VmSxXJZ0S8sMKiFD-5" source="7tf9QUAhqpp5ZMHyf5yW-38" target="7tf9QUAhqpp5ZMHyf5yW-41" edge="1">
          <mxGeometry relative="1" as="geometry" />
        </mxCell>
        <mxCell id="SgxLUe1fFd-I8KDMhxSj-43" value="1" style="edgeLabel;html=1;align=center;verticalAlign=middle;resizable=0;points=[];" parent="7tf9QUAhqpp5ZMHyf5yW-44" vertex="1" connectable="0">
          <mxGeometry x="-0.0878" relative="1" as="geometry">
            <mxPoint as="offset" />
          </mxGeometry>
        </mxCell>
        <mxCell id="7tf9QUAhqpp5ZMHyf5yW-42" value="two-dimensional continuant fiat boundary" style="rounded=1;whiteSpace=wrap;html=1;" parent="hiO9VmSxXJZ0S8sMKiFD-5" vertex="1">
          <mxGeometry x="293" y="832" width="119" height="60" as="geometry" />
        </mxCell>
        <mxCell id="7tf9QUAhqpp5ZMHyf5yW-45" style="edgeStyle=none;rounded=0;orthogonalLoop=1;jettySize=auto;html=1;exitX=1;exitY=1;exitDx=0;exitDy=0;entryX=0.5;entryY=0;entryDx=0;entryDy=0;" parent="hiO9VmSxXJZ0S8sMKiFD-5" source="7tf9QUAhqpp5ZMHyf5yW-38" target="7tf9QUAhqpp5ZMHyf5yW-42" edge="1">
          <mxGeometry relative="1" as="geometry" />
        </mxCell>
        <mxCell id="SgxLUe1fFd-I8KDMhxSj-44" value="2" style="edgeLabel;html=1;align=center;verticalAlign=middle;resizable=0;points=[];" parent="7tf9QUAhqpp5ZMHyf5yW-45" vertex="1" connectable="0">
          <mxGeometry x="-0.2173" y="1" relative="1" as="geometry">
            <mxPoint x="2" y="2" as="offset" />
          </mxGeometry>
        </mxCell>
        <mxCell id="7tf9QUAhqpp5ZMHyf5yW-49" value="How many&lt;br&gt;dimensions does this&lt;br&gt;entity have?" style="rhombus;whiteSpace=wrap;html=1;strokeColor=#007FFF;" parent="hiO9VmSxXJZ0S8sMKiFD-5" vertex="1">
          <mxGeometry x="550" y="692" width="169" height="80" as="geometry" />
        </mxCell>
        <mxCell id="7tf9QUAhqpp5ZMHyf5yW-53" style="edgeStyle=none;rounded=0;orthogonalLoop=1;jettySize=auto;html=1;exitX=0.5;exitY=1;exitDx=0;exitDy=0;entryX=0.5;entryY=0;entryDx=0;entryDy=0;" parent="hiO9VmSxXJZ0S8sMKiFD-5" source="7tf9QUAhqpp5ZMHyf5yW-34" target="7tf9QUAhqpp5ZMHyf5yW-49" edge="1">
          <mxGeometry relative="1" as="geometry" />
        </mxCell>
        <mxCell id="7tf9QUAhqpp5ZMHyf5yW-50" value="one-dimensional spatial region" style="rounded=1;whiteSpace=wrap;html=1;" parent="hiO9VmSxXJZ0S8sMKiFD-5" vertex="1">
          <mxGeometry x="430" y="832" width="119" height="60" as="geometry" />
        </mxCell>
        <mxCell id="7tf9QUAhqpp5ZMHyf5yW-46" style="edgeStyle=none;rounded=0;orthogonalLoop=1;jettySize=auto;html=1;exitX=0;exitY=0.5;exitDx=0;exitDy=0;entryX=0.5;entryY=0;entryDx=0;entryDy=0;" parent="hiO9VmSxXJZ0S8sMKiFD-5" source="7tf9QUAhqpp5ZMHyf5yW-49" target="7tf9QUAhqpp5ZMHyf5yW-50" edge="1">
          <mxGeometry relative="1" as="geometry" />
        </mxCell>
        <mxCell id="SgxLUe1fFd-I8KDMhxSj-38" value="1" style="edgeLabel;html=1;align=center;verticalAlign=middle;resizable=0;points=[];" parent="7tf9QUAhqpp5ZMHyf5yW-46" vertex="1" connectable="0">
          <mxGeometry x="0.0495" y="-1" relative="1" as="geometry">
            <mxPoint x="-4" y="2" as="offset" />
          </mxGeometry>
        </mxCell>
        <mxCell id="7tf9QUAhqpp5ZMHyf5yW-51" value="two-dimensional spatial region" style="rounded=1;whiteSpace=wrap;html=1;" parent="hiO9VmSxXJZ0S8sMKiFD-5" vertex="1">
          <mxGeometry x="556" y="832" width="119" height="60" as="geometry" />
        </mxCell>
        <mxCell id="7tf9QUAhqpp5ZMHyf5yW-47" style="edgeStyle=none;rounded=0;orthogonalLoop=1;jettySize=auto;html=1;exitX=0;exitY=1;exitDx=0;exitDy=0;entryX=0.5;entryY=0;entryDx=0;entryDy=0;" parent="hiO9VmSxXJZ0S8sMKiFD-5" source="7tf9QUAhqpp5ZMHyf5yW-49" target="7tf9QUAhqpp5ZMHyf5yW-51" edge="1">
          <mxGeometry relative="1" as="geometry" />
        </mxCell>
        <mxCell id="SgxLUe1fFd-I8KDMhxSj-39" value="2" style="edgeLabel;html=1;align=center;verticalAlign=middle;resizable=0;points=[];" parent="7tf9QUAhqpp5ZMHyf5yW-47" vertex="1" connectable="0">
          <mxGeometry x="0.0222" y="-1" relative="1" as="geometry">
            <mxPoint as="offset" />
          </mxGeometry>
        </mxCell>
        <mxCell id="7tf9QUAhqpp5ZMHyf5yW-52" value="three-dimensional spatial region" style="rounded=1;whiteSpace=wrap;html=1;" parent="hiO9VmSxXJZ0S8sMKiFD-5" vertex="1">
          <mxGeometry x="682" y="832" width="119" height="60" as="geometry" />
        </mxCell>
        <mxCell id="7tf9QUAhqpp5ZMHyf5yW-48" style="edgeStyle=none;rounded=0;orthogonalLoop=1;jettySize=auto;html=1;entryX=0.5;entryY=0;entryDx=0;entryDy=0;exitX=1;exitY=1;exitDx=0;exitDy=0;" parent="hiO9VmSxXJZ0S8sMKiFD-5" source="7tf9QUAhqpp5ZMHyf5yW-49" target="7tf9QUAhqpp5ZMHyf5yW-52" edge="1">
          <mxGeometry relative="1" as="geometry">
            <mxPoint x="729" y="660" as="sourcePoint" />
          </mxGeometry>
        </mxCell>
        <mxCell id="SgxLUe1fFd-I8KDMhxSj-40" value="3" style="edgeLabel;html=1;align=center;verticalAlign=middle;resizable=0;points=[];" parent="7tf9QUAhqpp5ZMHyf5yW-48" vertex="1" connectable="0">
          <mxGeometry x="-0.0037" relative="1" as="geometry">
            <mxPoint as="offset" />
          </mxGeometry>
        </mxCell>
        <mxCell id="7tf9QUAhqpp5ZMHyf5yW-54" value="zero-dimensional spatial region" style="rounded=1;whiteSpace=wrap;html=1;" parent="hiO9VmSxXJZ0S8sMKiFD-5" vertex="1">
          <mxGeometry x="808" y="832" width="119" height="60" as="geometry" />
        </mxCell>
        <mxCell id="7tf9QUAhqpp5ZMHyf5yW-55" style="edgeStyle=none;rounded=0;orthogonalLoop=1;jettySize=auto;html=1;entryX=0.5;entryY=0;entryDx=0;entryDy=0;exitX=1;exitY=0.5;exitDx=0;exitDy=0;" parent="hiO9VmSxXJZ0S8sMKiFD-5" source="7tf9QUAhqpp5ZMHyf5yW-49" target="7tf9QUAhqpp5ZMHyf5yW-54" edge="1">
          <mxGeometry relative="1" as="geometry" />
        </mxCell>
        <mxCell id="SgxLUe1fFd-I8KDMhxSj-41" value="0" style="edgeLabel;html=1;align=center;verticalAlign=middle;resizable=0;points=[];" parent="7tf9QUAhqpp5ZMHyf5yW-55" vertex="1" connectable="0">
          <mxGeometry x="0.0829" y="-3" relative="1" as="geometry">
            <mxPoint as="offset" />
          </mxGeometry>
        </mxCell>
        <mxCell id="Zn6khmz5GUfmGXHjrIoc-2" style="rounded=0;orthogonalLoop=1;jettySize=auto;html=1;exitX=0;exitY=1;exitDx=0;exitDy=0;" parent="hiO9VmSxXJZ0S8sMKiFD-5" source="7tf9QUAhqpp5ZMHyf5yW-56" target="7tf9QUAhqpp5ZMHyf5yW-59" edge="1">
          <mxGeometry relative="1" as="geometry" />
        </mxCell>
        <mxCell id="Zn6khmz5GUfmGXHjrIoc-3" value="Yes" style="edgeLabel;html=1;align=center;verticalAlign=middle;resizable=0;points=[];" parent="Zn6khmz5GUfmGXHjrIoc-2" vertex="1" connectable="0">
          <mxGeometry x="-0.1766" y="1" relative="1" as="geometry">
            <mxPoint as="offset" />
          </mxGeometry>
        </mxCell>
        <mxCell id="Zn6khmz5GUfmGXHjrIoc-73" style="edgeStyle=none;rounded=0;orthogonalLoop=1;jettySize=auto;html=1;exitX=1;exitY=1;exitDx=0;exitDy=0;entryX=0.5;entryY=0;entryDx=0;entryDy=0;" parent="hiO9VmSxXJZ0S8sMKiFD-5" source="7tf9QUAhqpp5ZMHyf5yW-56" target="Zn6khmz5GUfmGXHjrIoc-72" edge="1">
          <mxGeometry relative="1" as="geometry" />
        </mxCell>
        <mxCell id="Zn6khmz5GUfmGXHjrIoc-74" value="No" style="edgeLabel;html=1;align=center;verticalAlign=middle;resizable=0;points=[];" parent="Zn6khmz5GUfmGXHjrIoc-73" vertex="1" connectable="0">
          <mxGeometry x="-0.0789" relative="1" as="geometry">
            <mxPoint as="offset" />
          </mxGeometry>
        </mxCell>
        <mxCell id="7tf9QUAhqpp5ZMHyf5yW-56" value="Is it a collection &lt;br&gt;of disjoint self-standing &lt;br&gt;single objects?" style="rhombus;whiteSpace=wrap;html=1;strokeColor=#007FFF;" parent="hiO9VmSxXJZ0S8sMKiFD-5" vertex="1">
          <mxGeometry x="855" y="330" width="170" height="80" as="geometry" />
        </mxCell>
        <mxCell id="7tf9QUAhqpp5ZMHyf5yW-57" style="edgeStyle=none;rounded=0;orthogonalLoop=1;jettySize=auto;html=1;exitX=0.5;exitY=1;exitDx=0;exitDy=0;entryX=0.5;entryY=0;entryDx=0;entryDy=0;" parent="hiO9VmSxXJZ0S8sMKiFD-5" source="7tf9QUAhqpp5ZMHyf5yW-19" target="7tf9QUAhqpp5ZMHyf5yW-56" edge="1">
          <mxGeometry relative="1" as="geometry" />
        </mxCell>
        <mxCell id="7tf9QUAhqpp5ZMHyf5yW-58" value="fiat object part" style="rounded=1;whiteSpace=wrap;html=1;" parent="hiO9VmSxXJZ0S8sMKiFD-5" vertex="1">
          <mxGeometry x="890" y="600" width="120" height="60" as="geometry" />
        </mxCell>
        <mxCell id="7tf9QUAhqpp5ZMHyf5yW-63" style="edgeStyle=none;rounded=0;orthogonalLoop=1;jettySize=auto;html=1;exitX=0;exitY=1;exitDx=0;exitDy=0;entryX=0.5;entryY=0;entryDx=0;entryDy=0;" parent="hiO9VmSxXJZ0S8sMKiFD-5" source="Zn6khmz5GUfmGXHjrIoc-72" target="7tf9QUAhqpp5ZMHyf5yW-58" edge="1">
          <mxGeometry relative="1" as="geometry">
            <mxPoint x="897.4999999999998" y="522" as="sourcePoint" />
          </mxGeometry>
        </mxCell>
        <mxCell id="SgxLUe1fFd-I8KDMhxSj-13" value="Yes" style="edgeLabel;html=1;align=center;verticalAlign=middle;resizable=0;points=[];" parent="7tf9QUAhqpp5ZMHyf5yW-63" vertex="1" connectable="0">
          <mxGeometry x="-0.0526" y="-1" relative="1" as="geometry">
            <mxPoint as="offset" />
          </mxGeometry>
        </mxCell>
        <mxCell id="7tf9QUAhqpp5ZMHyf5yW-59" value="object aggregate" style="rounded=1;whiteSpace=wrap;html=1;" parent="hiO9VmSxXJZ0S8sMKiFD-5" vertex="1">
          <mxGeometry x="761" y="471" width="120" height="60" as="geometry" />
        </mxCell>
        <mxCell id="7tf9QUAhqpp5ZMHyf5yW-65" value="" style="rhombus;whiteSpace=wrap;html=1;" parent="hiO9VmSxXJZ0S8sMKiFD-5" vertex="1">
          <mxGeometry x="118" y="702" width="169" height="80" as="geometry" />
        </mxCell>
        <mxCell id="7tf9QUAhqpp5ZMHyf5yW-67" value="&lt;span&gt;How many&lt;/span&gt;&lt;br&gt;&lt;span&gt;dimensions does this&lt;/span&gt;&lt;br&gt;&lt;span&gt;entity have?&lt;/span&gt;" style="rhombus;whiteSpace=wrap;html=1;strokeColor=#007FFF;" parent="hiO9VmSxXJZ0S8sMKiFD-5" vertex="1">
          <mxGeometry x="118" y="702" width="169" height="80" as="geometry" />
        </mxCell>
        <mxCell id="7tf9QUAhqpp5ZMHyf5yW-40" value="zero-dimensional continuant boundary" style="rounded=1;whiteSpace=wrap;html=1;" parent="hiO9VmSxXJZ0S8sMKiFD-5" vertex="1">
          <mxGeometry x="-7" y="832" width="119" height="60" as="geometry" />
        </mxCell>
        <mxCell id="7tf9QUAhqpp5ZMHyf5yW-43" style="edgeStyle=none;rounded=0;orthogonalLoop=1;jettySize=auto;html=1;exitX=0;exitY=1;exitDx=0;exitDy=0;entryX=0.5;entryY=0;entryDx=0;entryDy=0;" parent="hiO9VmSxXJZ0S8sMKiFD-5" source="7tf9QUAhqpp5ZMHyf5yW-38" target="7tf9QUAhqpp5ZMHyf5yW-40" edge="1">
          <mxGeometry relative="1" as="geometry" />
        </mxCell>
        <mxCell id="SgxLUe1fFd-I8KDMhxSj-42" value="0" style="edgeLabel;html=1;align=center;verticalAlign=middle;resizable=0;points=[];" parent="7tf9QUAhqpp5ZMHyf5yW-43" vertex="1" connectable="0">
          <mxGeometry x="-0.1634" y="-1" relative="1" as="geometry">
            <mxPoint as="offset" />
          </mxGeometry>
        </mxCell>
        <mxCell id="SgxLUe1fFd-I8KDMhxSj-29" style="edgeStyle=orthogonalEdgeStyle;rounded=0;orthogonalLoop=1;jettySize=auto;html=1;exitX=0;exitY=1;exitDx=0;exitDy=0;" parent="hiO9VmSxXJZ0S8sMKiFD-5" source="SgxLUe1fFd-I8KDMhxSj-28" target="7tf9QUAhqpp5ZMHyf5yW-32" edge="1">
          <mxGeometry relative="1" as="geometry" />
        </mxCell>
        <mxCell id="SgxLUe1fFd-I8KDMhxSj-33" value="0-2" style="edgeLabel;html=1;align=center;verticalAlign=middle;resizable=0;points=[];" parent="SgxLUe1fFd-I8KDMhxSj-29" vertex="1" connectable="0">
          <mxGeometry x="0.0814" y="-1" relative="1" as="geometry">
            <mxPoint y="-3" as="offset" />
          </mxGeometry>
        </mxCell>
        <mxCell id="SgxLUe1fFd-I8KDMhxSj-28" value="How many dimensions&lt;br&gt;does this entity have?" style="rhombus;whiteSpace=wrap;html=1;strokeColor=#007FFF;" parent="hiO9VmSxXJZ0S8sMKiFD-5" vertex="1">
          <mxGeometry x="160" y="461" width="170" height="80" as="geometry" />
        </mxCell>
        <mxCell id="SgxLUe1fFd-I8KDMhxSj-32" style="edgeStyle=orthogonalEdgeStyle;rounded=0;orthogonalLoop=1;jettySize=auto;html=1;entryX=0.5;entryY=0;entryDx=0;entryDy=0;" parent="hiO9VmSxXJZ0S8sMKiFD-5" target="7tf9QUAhqpp5ZMHyf5yW-34" edge="1">
          <mxGeometry relative="1" as="geometry">
            <mxPoint x="634" y="542" as="sourcePoint" />
          </mxGeometry>
        </mxCell>
        <mxCell id="SgxLUe1fFd-I8KDMhxSj-35" value="Yes" style="edgeLabel;html=1;align=center;verticalAlign=middle;resizable=0;points=[];" parent="SgxLUe1fFd-I8KDMhxSj-32" vertex="1" connectable="0">
          <mxGeometry x="0.0309" y="-2" relative="1" as="geometry">
            <mxPoint x="2" as="offset" />
          </mxGeometry>
        </mxCell>
        <mxCell id="SgxLUe1fFd-I8KDMhxSj-30" value="Is the entity&lt;br&gt;a spatial&amp;nbsp;projection of a&lt;br&gt;portion of space-&lt;br&gt;time?" style="rhombus;whiteSpace=wrap;html=1;strokeColor=#007FFF;" parent="hiO9VmSxXJZ0S8sMKiFD-5" vertex="1">
          <mxGeometry x="549" y="461" width="170" height="80" as="geometry" />
        </mxCell>
        <mxCell id="Zn6khmz5GUfmGXHjrIoc-72" value="Is it a proper part &lt;br&gt;of an object, rather than a member of?" style="rhombus;whiteSpace=wrap;html=1;strokeColor=#007FFF;" parent="hiO9VmSxXJZ0S8sMKiFD-5" vertex="1">
          <mxGeometry x="950" y="451" width="170" height="80" as="geometry" />
        </mxCell>
        <mxCell id="7tf9QUAhqpp5ZMHyf5yW-16" style="edgeStyle=none;rounded=0;orthogonalLoop=1;jettySize=auto;html=1;exitX=0;exitY=0.5;exitDx=0;exitDy=0;entryX=0.5;entryY=0;entryDx=0;entryDy=0;" parent="1" source="7tf9QUAhqpp5ZMHyf5yW-9" target="7tf9QUAhqpp5ZMHyf5yW-13" edge="1">
          <mxGeometry relative="1" as="geometry" />
        </mxCell>
        <mxCell id="hiO9VmSxXJZ0S8sMKiFD-10" value="No" style="edgeLabel;html=1;align=center;verticalAlign=middle;resizable=0;points=[];" parent="7tf9QUAhqpp5ZMHyf5yW-16" vertex="1" connectable="0">
          <mxGeometry x="-0.1098" y="-1" relative="1" as="geometry">
            <mxPoint as="offset" />
          </mxGeometry>
        </mxCell>
        <mxCell id="hiO9VmSxXJZ0S8sMKiFD-6" value="" style="group" parent="1" vertex="1" connectable="0">
          <mxGeometry x="-51" y="694" width="540" height="750" as="geometry" />
        </mxCell>
        <mxCell id="7tf9QUAhqpp5ZMHyf5yW-72" value="Is it&amp;nbsp;specifically&lt;br&gt;dependent on&amp;nbsp;two or&lt;br&gt;more non-identical &lt;br&gt;entities?" style="rhombus;whiteSpace=wrap;html=1;strokeColor=#007FFF;" parent="hiO9VmSxXJZ0S8sMKiFD-6" vertex="1">
          <mxGeometry x="383" y="386" width="210" height="80" as="geometry" />
        </mxCell>
        <mxCell id="7tf9QUAhqpp5ZMHyf5yW-14" value="specifically dependent continual" style="rounded=1;whiteSpace=wrap;html=1;" parent="hiO9VmSxXJZ0S8sMKiFD-6" vertex="1">
          <mxGeometry x="323" y="34" width="120" height="60" as="geometry" />
        </mxCell>
        <mxCell id="7tf9QUAhqpp5ZMHyf5yW-24" value="Does the &lt;br&gt;entity require some&lt;br&gt;further&amp;nbsp;process to be &lt;br&gt;realised?" style="rhombus;whiteSpace=wrap;html=1;strokeColor=#007FFF;" parent="hiO9VmSxXJZ0S8sMKiFD-6" vertex="1">
          <mxGeometry x="298" y="134" width="170" height="80" as="geometry" />
        </mxCell>
        <mxCell id="7tf9QUAhqpp5ZMHyf5yW-25" style="edgeStyle=none;rounded=0;orthogonalLoop=1;jettySize=auto;html=1;exitX=0.5;exitY=1;exitDx=0;exitDy=0;entryX=0.5;entryY=0;entryDx=0;entryDy=0;" parent="hiO9VmSxXJZ0S8sMKiFD-6" source="7tf9QUAhqpp5ZMHyf5yW-14" target="7tf9QUAhqpp5ZMHyf5yW-24" edge="1">
          <mxGeometry x="53" as="geometry" />
        </mxCell>
        <mxCell id="7tf9QUAhqpp5ZMHyf5yW-26" value="realizable entity" style="rounded=1;whiteSpace=wrap;html=1;" parent="hiO9VmSxXJZ0S8sMKiFD-6" vertex="1">
          <mxGeometry x="213" y="274" width="120" height="60" as="geometry" />
        </mxCell>
        <mxCell id="7tf9QUAhqpp5ZMHyf5yW-28" style="edgeStyle=none;rounded=0;orthogonalLoop=1;jettySize=auto;html=1;exitX=0;exitY=1;exitDx=0;exitDy=0;entryX=0.5;entryY=0;entryDx=0;entryDy=0;" parent="hiO9VmSxXJZ0S8sMKiFD-6" source="7tf9QUAhqpp5ZMHyf5yW-24" target="7tf9QUAhqpp5ZMHyf5yW-26" edge="1">
          <mxGeometry x="53" as="geometry" />
        </mxCell>
        <mxCell id="hiO9VmSxXJZ0S8sMKiFD-17" value="Yes" style="edgeLabel;html=1;align=center;verticalAlign=middle;resizable=0;points=[];" parent="7tf9QUAhqpp5ZMHyf5yW-28" vertex="1" connectable="0">
          <mxGeometry relative="1" as="geometry">
            <mxPoint x="4" y="-4" as="offset" />
          </mxGeometry>
        </mxCell>
        <mxCell id="7tf9QUAhqpp5ZMHyf5yW-27" value="quality" style="rounded=1;whiteSpace=wrap;html=1;" parent="hiO9VmSxXJZ0S8sMKiFD-6" vertex="1">
          <mxGeometry x="428" y="274" width="120" height="60" as="geometry" />
        </mxCell>
        <mxCell id="7tf9QUAhqpp5ZMHyf5yW-29" style="edgeStyle=none;rounded=0;orthogonalLoop=1;jettySize=auto;html=1;exitX=1;exitY=1;exitDx=0;exitDy=0;entryX=0.5;entryY=0;entryDx=0;entryDy=0;" parent="hiO9VmSxXJZ0S8sMKiFD-6" source="7tf9QUAhqpp5ZMHyf5yW-24" target="7tf9QUAhqpp5ZMHyf5yW-27" edge="1">
          <mxGeometry x="53" as="geometry" />
        </mxCell>
        <mxCell id="hiO9VmSxXJZ0S8sMKiFD-18" value="No" style="edgeLabel;html=1;align=center;verticalAlign=middle;resizable=0;points=[];" parent="7tf9QUAhqpp5ZMHyf5yW-29" vertex="1" connectable="0">
          <mxGeometry relative="1" as="geometry">
            <mxPoint y="-4" as="offset" />
          </mxGeometry>
        </mxCell>
        <mxCell id="7tf9QUAhqpp5ZMHyf5yW-74" value="relational quality" style="rounded=1;whiteSpace=wrap;html=1;" parent="hiO9VmSxXJZ0S8sMKiFD-6" vertex="1">
          <mxGeometry x="428" y="516" width="120" height="60" as="geometry" />
        </mxCell>
        <mxCell id="7tf9QUAhqpp5ZMHyf5yW-76" value="&lt;font style=&quot;font-size: 12px&quot;&gt;Does this entity&lt;br&gt;exist because the bearer is in a specific situation?&lt;/font&gt;" style="rhombus;whiteSpace=wrap;html=1;strokeColor=#007FFF;" parent="hiO9VmSxXJZ0S8sMKiFD-6" vertex="1">
          <mxGeometry x="173" y="386" width="200" height="80" as="geometry" />
        </mxCell>
        <mxCell id="7tf9QUAhqpp5ZMHyf5yW-77" style="edgeStyle=none;rounded=0;orthogonalLoop=1;jettySize=auto;html=1;exitX=0.5;exitY=1;exitDx=0;exitDy=0;entryX=0.5;entryY=0;entryDx=0;entryDy=0;" parent="hiO9VmSxXJZ0S8sMKiFD-6" source="7tf9QUAhqpp5ZMHyf5yW-26" target="7tf9QUAhqpp5ZMHyf5yW-76" edge="1">
          <mxGeometry x="68" as="geometry" />
        </mxCell>
        <mxCell id="7tf9QUAhqpp5ZMHyf5yW-78" value="role" style="rounded=1;whiteSpace=wrap;html=1;" parent="hiO9VmSxXJZ0S8sMKiFD-6" vertex="1">
          <mxGeometry x="295" y="516" width="120" height="60" as="geometry" />
        </mxCell>
        <mxCell id="7tf9QUAhqpp5ZMHyf5yW-80" style="edgeStyle=none;rounded=0;orthogonalLoop=1;jettySize=auto;html=1;exitX=1;exitY=1;exitDx=0;exitDy=0;entryX=0.5;entryY=0;entryDx=0;entryDy=0;" parent="hiO9VmSxXJZ0S8sMKiFD-6" source="7tf9QUAhqpp5ZMHyf5yW-76" target="7tf9QUAhqpp5ZMHyf5yW-78" edge="1">
          <mxGeometry x="68" as="geometry">
            <mxPoint x="358" y="514" as="targetPoint" />
          </mxGeometry>
        </mxCell>
        <mxCell id="SgxLUe1fFd-I8KDMhxSj-2" value="Yes" style="edgeLabel;html=1;align=center;verticalAlign=middle;resizable=0;points=[];" parent="7tf9QUAhqpp5ZMHyf5yW-80" vertex="1" connectable="0">
          <mxGeometry relative="1" as="geometry">
            <mxPoint x="-4" y="-5" as="offset" />
          </mxGeometry>
        </mxCell>
        <mxCell id="7tf9QUAhqpp5ZMHyf5yW-79" value="disposition" style="rounded=1;whiteSpace=wrap;html=1;" parent="hiO9VmSxXJZ0S8sMKiFD-6" vertex="1">
          <mxGeometry x="132" y="516" width="120" height="60" as="geometry" />
        </mxCell>
        <mxCell id="7tf9QUAhqpp5ZMHyf5yW-81" style="edgeStyle=none;rounded=0;orthogonalLoop=1;jettySize=auto;html=1;exitX=0;exitY=1;exitDx=0;exitDy=0;entryX=0.5;entryY=0;entryDx=0;entryDy=0;" parent="hiO9VmSxXJZ0S8sMKiFD-6" source="7tf9QUAhqpp5ZMHyf5yW-76" target="7tf9QUAhqpp5ZMHyf5yW-79" edge="1">
          <mxGeometry x="68" as="geometry" />
        </mxCell>
        <mxCell id="SgxLUe1fFd-I8KDMhxSj-1" value="No" style="edgeLabel;html=1;align=center;verticalAlign=middle;resizable=0;points=[];" parent="7tf9QUAhqpp5ZMHyf5yW-81" vertex="1" connectable="0">
          <mxGeometry relative="1" as="geometry">
            <mxPoint x="1" y="-3" as="offset" />
          </mxGeometry>
        </mxCell>
        <mxCell id="7tf9QUAhqpp5ZMHyf5yW-82" value="Does this entity&lt;br&gt;exist (by evolution or&lt;br&gt;design) to realise specific&lt;br&gt;processes?" style="rhombus;whiteSpace=wrap;html=1;strokeColor=#007FFF;" parent="hiO9VmSxXJZ0S8sMKiFD-6" vertex="1">
          <mxGeometry x="91" y="626" width="202" height="80" as="geometry" />
        </mxCell>
        <mxCell id="7tf9QUAhqpp5ZMHyf5yW-83" style="edgeStyle=none;rounded=0;orthogonalLoop=1;jettySize=auto;html=1;exitX=0.5;exitY=1;exitDx=0;exitDy=0;entryX=0.5;entryY=0;entryDx=0;entryDy=0;" parent="hiO9VmSxXJZ0S8sMKiFD-6" source="7tf9QUAhqpp5ZMHyf5yW-79" target="7tf9QUAhqpp5ZMHyf5yW-82" edge="1">
          <mxGeometry x="100" y="65" as="geometry" />
        </mxCell>
        <mxCell id="7tf9QUAhqpp5ZMHyf5yW-84" value="function" style="rounded=1;whiteSpace=wrap;html=1;" parent="hiO9VmSxXJZ0S8sMKiFD-6" vertex="1">
          <mxGeometry x="132" y="755" width="120" height="60" as="geometry" />
        </mxCell>
        <mxCell id="7tf9QUAhqpp5ZMHyf5yW-85" style="edgeStyle=none;rounded=0;orthogonalLoop=1;jettySize=auto;html=1;exitX=0.5;exitY=1;exitDx=0;exitDy=0;entryX=0.5;entryY=0;entryDx=0;entryDy=0;" parent="hiO9VmSxXJZ0S8sMKiFD-6" source="7tf9QUAhqpp5ZMHyf5yW-82" target="7tf9QUAhqpp5ZMHyf5yW-84" edge="1">
          <mxGeometry x="100" y="65" as="geometry" />
        </mxCell>
        <mxCell id="SgxLUe1fFd-I8KDMhxSj-3" value="Yes" style="edgeLabel;html=1;align=center;verticalAlign=middle;resizable=0;points=[];" parent="7tf9QUAhqpp5ZMHyf5yW-85" vertex="1" connectable="0">
          <mxGeometry relative="1" as="geometry">
            <mxPoint y="-6" as="offset" />
          </mxGeometry>
        </mxCell>
        <mxCell id="7tf9QUAhqpp5ZMHyf5yW-73" style="edgeStyle=none;rounded=0;orthogonalLoop=1;jettySize=auto;html=1;exitX=0.5;exitY=1;exitDx=0;exitDy=0;" parent="hiO9VmSxXJZ0S8sMKiFD-6" source="7tf9QUAhqpp5ZMHyf5yW-27" target="7tf9QUAhqpp5ZMHyf5yW-72" edge="1">
          <mxGeometry relative="1" as="geometry" />
        </mxCell>
        <mxCell id="7tf9QUAhqpp5ZMHyf5yW-75" style="edgeStyle=none;rounded=0;orthogonalLoop=1;jettySize=auto;html=1;exitX=0.5;exitY=1;exitDx=0;exitDy=0;entryX=0.5;entryY=0;entryDx=0;entryDy=0;" parent="hiO9VmSxXJZ0S8sMKiFD-6" source="7tf9QUAhqpp5ZMHyf5yW-72" target="7tf9QUAhqpp5ZMHyf5yW-74" edge="1">
          <mxGeometry relative="1" as="geometry" />
        </mxCell>
        <mxCell id="hiO9VmSxXJZ0S8sMKiFD-19" value="Yes" style="edgeLabel;html=1;align=center;verticalAlign=middle;resizable=0;points=[];" parent="7tf9QUAhqpp5ZMHyf5yW-75" vertex="1" connectable="0">
          <mxGeometry x="-0.1613" relative="1" as="geometry">
            <mxPoint as="offset" />
          </mxGeometry>
        </mxCell>
        <mxCell id="7tf9QUAhqpp5ZMHyf5yW-60" value="object" style="rounded=1;whiteSpace=wrap;html=1;" parent="hiO9VmSxXJZ0S8sMKiFD-6" vertex="1">
          <mxGeometry x="-29" y="426" width="120" height="60" as="geometry" />
        </mxCell>
        <mxCell id="SgxLUe1fFd-I8KDMhxSj-15" value="&lt;div&gt;&lt;b&gt;&lt;font style=&quot;font-size: 12px&quot;&gt;* &lt;/font&gt;&lt;/b&gt;&lt;span style=&quot;font-size: 10px&quot;&gt;The entity is a&lt;/span&gt;&lt;/div&gt;&lt;div&gt;&lt;span style=&quot;font-size: 10px&quot;&gt;maximal instance of a causal&amp;nbsp;&lt;/span&gt;&lt;span style=&quot;font-size: 10px&quot;&gt;unity which it&lt;/span&gt;&lt;/div&gt;&lt;div&gt;&lt;span style=&quot;font-size: 10px&quot;&gt;necessarily&amp;nbsp;&lt;/span&gt;&lt;span style=&quot;font-size: 10px&quot;&gt;manifests.&lt;/span&gt;&lt;/div&gt;" style="text;html=1;strokeColor=none;fillColor=none;align=left;verticalAlign=middle;whiteSpace=wrap;rounded=0;" parent="hiO9VmSxXJZ0S8sMKiFD-6" vertex="1">
          <mxGeometry x="-29" y="488" width="120" height="59" as="geometry" />
        </mxCell>
        <mxCell id="hiO9VmSxXJZ0S8sMKiFD-9" style="edgeStyle=orthogonalEdgeStyle;rounded=0;orthogonalLoop=1;jettySize=auto;html=1;exitX=0.5;exitY=1;exitDx=0;exitDy=0;" parent="1" source="hiO9VmSxXJZ0S8sMKiFD-8" target="7tf9QUAhqpp5ZMHyf5yW-14" edge="1">
          <mxGeometry relative="1" as="geometry" />
        </mxCell>
        <mxCell id="hiO9VmSxXJZ0S8sMKiFD-13" value="No" style="edgeLabel;html=1;align=center;verticalAlign=middle;resizable=0;points=[];" parent="hiO9VmSxXJZ0S8sMKiFD-9" vertex="1" connectable="0">
          <mxGeometry x="-0.2362" y="1" relative="1" as="geometry">
            <mxPoint x="-1" y="8" as="offset" />
          </mxGeometry>
        </mxCell>
        <mxCell id="hiO9VmSxXJZ0S8sMKiFD-8" value="May the entity be &lt;br&gt;copied between a number &lt;br&gt;of bearers?" style="rhombus;whiteSpace=wrap;html=1;strokeColor=#007FFF;" parent="1" vertex="1">
          <mxGeometry x="247" y="488" width="170" height="80" as="geometry" />
        </mxCell>
        <mxCell id="SgxLUe1fFd-I8KDMhxSj-48" value="yes" style="edgeStyle=none;rounded=0;orthogonalLoop=1;jettySize=auto;html=1;exitX=0;exitY=1;exitDx=0;exitDy=0;entryX=0.5;entryY=0;entryDx=0;entryDy=0;" parent="1" source="SgxLUe1fFd-I8KDMhxSj-47" target="7tf9QUAhqpp5ZMHyf5yW-86" edge="1">
          <mxGeometry relative="1" as="geometry" />
        </mxCell>
        <mxCell id="SgxLUe1fFd-I8KDMhxSj-47" value="Does this entity&lt;br&gt;have a proper temporal&lt;br&gt;part?" style="rhombus;whiteSpace=wrap;html=1;strokeColor=#007FFF;" parent="1" vertex="1">
          <mxGeometry x="896" y="488" width="170" height="80" as="geometry" />
        </mxCell>
        <mxCell id="7tf9QUAhqpp5ZMHyf5yW-62" style="edgeStyle=none;rounded=0;orthogonalLoop=1;jettySize=auto;html=1;exitX=1;exitY=1;exitDx=0;exitDy=0;entryX=0.5;entryY=0;entryDx=0;entryDy=0;" parent="1" source="Zn6khmz5GUfmGXHjrIoc-72" target="7tf9QUAhqpp5ZMHyf5yW-60" edge="1">
          <mxGeometry relative="1" as="geometry">
            <mxPoint x="-147.50000000000023" y="1020" as="sourcePoint" />
          </mxGeometry>
        </mxCell>
        <mxCell id="SgxLUe1fFd-I8KDMhxSj-12" value="No" style="edgeLabel;html=1;align=center;verticalAlign=middle;resizable=0;points=[];" parent="7tf9QUAhqpp5ZMHyf5yW-62" vertex="1" connectable="0">
          <mxGeometry x="-0.0901" y="2" relative="1" as="geometry">
            <mxPoint y="2" as="offset" />
          </mxGeometry>
        </mxCell>
        <mxCell id="Zn6khmz5GUfmGXHjrIoc-78" value="process profile" style="rounded=1;whiteSpace=wrap;html=1;" parent="1" vertex="1">
          <mxGeometry x="1180" y="970" width="120" height="60" as="geometry" />
        </mxCell>
        <mxCell id="C-2I8JzMY-JGrmDNcIf2-2" value="Yes" style="edgeStyle=orthogonalEdgeStyle;rounded=0;orthogonalLoop=1;jettySize=auto;html=1;exitX=0.5;exitY=1;exitDx=0;exitDy=0;" edge="1" parent="1" source="C-2I8JzMY-JGrmDNcIf2-1" target="Zn6khmz5GUfmGXHjrIoc-78">
          <mxGeometry relative="1" as="geometry" />
        </mxCell>
        <mxCell id="C-2I8JzMY-JGrmDNcIf2-1" value="&lt;span style=&quot;font-size: 11px&quot;&gt;Is it a collection of disjoint &lt;br&gt;part-processes?&lt;/span&gt;" style="rhombus;whiteSpace=wrap;html=1;strokeColor=#007FFF;" vertex="1" parent="1">
          <mxGeometry x="1140" y="827" width="200" height="80" as="geometry" />
        </mxCell>
      </root>
    </mxGraphModel>
  </diagram>
  <diagram name="occurent" id="2jGlJdnhorrxOPXLNyO9">
    <mxGraphModel dx="952" dy="981" grid="1" gridSize="10" guides="1" tooltips="1" connect="1" arrows="1" fold="1" page="1" pageScale="1" pageWidth="1169" pageHeight="827" math="0" shadow="0">
      <root>
        <mxCell id="8YIe1JZ8c8tA94qx3NWR-0" />
        <mxCell id="8YIe1JZ8c8tA94qx3NWR-1" parent="8YIe1JZ8c8tA94qx3NWR-0" />
        <mxCell id="8YIe1JZ8c8tA94qx3NWR-2" value="Can this region&lt;br&gt;have a proper temporal&lt;br&gt;part?" style="rhombus;whiteSpace=wrap;html=1;strokeColor=#007FFF;" vertex="1" parent="8YIe1JZ8c8tA94qx3NWR-1">
          <mxGeometry x="919" y="605" width="170" height="80" as="geometry" />
        </mxCell>
        <mxCell id="8YIe1JZ8c8tA94qx3NWR-3" value="Is this region continuous?" style="rhombus;whiteSpace=wrap;html=1;strokeColor=#007FFF;" vertex="1" parent="8YIe1JZ8c8tA94qx3NWR-1">
          <mxGeometry x="704" y="605" width="170" height="80" as="geometry" />
        </mxCell>
        <mxCell id="8YIe1JZ8c8tA94qx3NWR-13" style="edgeStyle=none;rounded=0;orthogonalLoop=1;jettySize=auto;html=1;exitX=0.5;exitY=1;exitDx=0;exitDy=0;" edge="1" parent="8YIe1JZ8c8tA94qx3NWR-1" source="8YIe1JZ8c8tA94qx3NWR-14" target="8YIe1JZ8c8tA94qx3NWR-25">
          <mxGeometry relative="1" as="geometry" />
        </mxCell>
        <mxCell id="8YIe1JZ8c8tA94qx3NWR-14" value="occurrent" style="rounded=1;whiteSpace=wrap;html=1;" vertex="1" parent="8YIe1JZ8c8tA94qx3NWR-1">
          <mxGeometry x="551" y="35" width="120" height="60" as="geometry" />
        </mxCell>
        <mxCell id="8YIe1JZ8c8tA94qx3NWR-21" value="inhabits" style="edgeStyle=none;rounded=0;orthogonalLoop=1;jettySize=auto;html=1;entryX=0.5;entryY=0;entryDx=0;entryDy=0;exitX=0;exitY=0.5;exitDx=0;exitDy=0;" edge="1" parent="8YIe1JZ8c8tA94qx3NWR-1" source="8YIe1JZ8c8tA94qx3NWR-25" target="8YIe1JZ8c8tA94qx3NWR-150">
          <mxGeometry relative="1" as="geometry">
            <mxPoint x="542" y="185" as="sourcePoint" />
          </mxGeometry>
        </mxCell>
        <mxCell id="8YIe1JZ8c8tA94qx3NWR-22" value="no" style="edgeStyle=none;rounded=0;orthogonalLoop=1;jettySize=auto;html=1;entryX=0.5;entryY=0;entryDx=0;entryDy=0;exitX=1;exitY=1;exitDx=0;exitDy=0;" edge="1" parent="8YIe1JZ8c8tA94qx3NWR-1" source="8YIe1JZ8c8tA94qx3NWR-150" target="8YIe1JZ8c8tA94qx3NWR-28">
          <mxGeometry relative="1" as="geometry" />
        </mxCell>
        <mxCell id="8YIe1JZ8c8tA94qx3NWR-23" value="portion of" style="edgeStyle=none;rounded=0;orthogonalLoop=1;jettySize=auto;html=1;entryX=0.5;entryY=0;entryDx=0;entryDy=0;exitX=0.5;exitY=1;exitDx=0;exitDy=0;" edge="1" parent="8YIe1JZ8c8tA94qx3NWR-1">
          <mxGeometry x="-0.1429" relative="1" as="geometry">
            <mxPoint x="611" y="205" as="sourcePoint" />
            <mxPoint x="611" y="275" as="targetPoint" />
            <mxPoint as="offset" />
          </mxGeometry>
        </mxCell>
        <mxCell id="8YIe1JZ8c8tA94qx3NWR-24" value="projection of" style="edgeStyle=none;rounded=0;orthogonalLoop=1;jettySize=auto;html=1;entryX=0.5;entryY=0;entryDx=0;entryDy=0;exitX=1;exitY=0.5;exitDx=0;exitDy=0;" edge="1" parent="8YIe1JZ8c8tA94qx3NWR-1" source="8YIe1JZ8c8tA94qx3NWR-25" target="8YIe1JZ8c8tA94qx3NWR-31">
          <mxGeometry x="-0.0499" y="3" relative="1" as="geometry">
            <mxPoint as="offset" />
          </mxGeometry>
        </mxCell>
        <mxCell id="8YIe1JZ8c8tA94qx3NWR-25" value="What is&lt;br&gt;this entity&#39;s&lt;br&gt;relation to the universal&lt;br&gt;spatiotemporal&lt;br&gt;region?" style="rhombus;whiteSpace=wrap;html=1;strokeColor=#007FFF;" vertex="1" parent="8YIe1JZ8c8tA94qx3NWR-1">
          <mxGeometry x="526" y="125" width="170" height="80" as="geometry" />
        </mxCell>
        <mxCell id="8YIe1JZ8c8tA94qx3NWR-26" style="edgeStyle=none;rounded=0;orthogonalLoop=1;jettySize=auto;html=1;exitX=0.5;exitY=1;exitDx=0;exitDy=0;entryX=0.5;entryY=0;entryDx=0;entryDy=0;" edge="1" parent="8YIe1JZ8c8tA94qx3NWR-1" source="8YIe1JZ8c8tA94qx3NWR-27" target="8YIe1JZ8c8tA94qx3NWR-34">
          <mxGeometry relative="1" as="geometry" />
        </mxCell>
        <mxCell id="8YIe1JZ8c8tA94qx3NWR-27" value="process" style="rounded=1;whiteSpace=wrap;html=1;" vertex="1" parent="8YIe1JZ8c8tA94qx3NWR-1">
          <mxGeometry x="165" y="393" width="120" height="60" as="geometry" />
        </mxCell>
        <mxCell id="8YIe1JZ8c8tA94qx3NWR-28" value="process boundary" style="rounded=1;whiteSpace=wrap;html=1;" vertex="1" parent="8YIe1JZ8c8tA94qx3NWR-1">
          <mxGeometry x="358" y="393" width="120" height="60" as="geometry" />
        </mxCell>
        <mxCell id="8YIe1JZ8c8tA94qx3NWR-29" value="spatiotemporal region" style="rounded=1;whiteSpace=wrap;html=1;" vertex="1" parent="8YIe1JZ8c8tA94qx3NWR-1">
          <mxGeometry x="551" y="275" width="120" height="60" as="geometry" />
        </mxCell>
        <mxCell id="8YIe1JZ8c8tA94qx3NWR-30" style="edgeStyle=none;rounded=0;orthogonalLoop=1;jettySize=auto;html=1;exitX=0.5;exitY=1;exitDx=0;exitDy=0;" edge="1" parent="8YIe1JZ8c8tA94qx3NWR-1" source="8YIe1JZ8c8tA94qx3NWR-31" target="8YIe1JZ8c8tA94qx3NWR-39">
          <mxGeometry relative="1" as="geometry" />
        </mxCell>
        <mxCell id="8YIe1JZ8c8tA94qx3NWR-31" value="temporal region" style="rounded=1;whiteSpace=wrap;html=1;" vertex="1" parent="8YIe1JZ8c8tA94qx3NWR-1">
          <mxGeometry x="844" y="275" width="120" height="60" as="geometry" />
        </mxCell>
        <mxCell id="8YIe1JZ8c8tA94qx3NWR-32" style="edgeStyle=none;rounded=0;orthogonalLoop=1;jettySize=auto;html=1;exitX=0.5;exitY=1;exitDx=0;exitDy=0;entryX=0.5;entryY=0;entryDx=0;entryDy=0;" edge="1" parent="8YIe1JZ8c8tA94qx3NWR-1" source="8YIe1JZ8c8tA94qx3NWR-34" target="8YIe1JZ8c8tA94qx3NWR-35">
          <mxGeometry relative="1" as="geometry">
            <mxPoint x="225" y="591" as="sourcePoint" />
            <Array as="points" />
          </mxGeometry>
        </mxCell>
        <mxCell id="8YIe1JZ8c8tA94qx3NWR-33" value="Yes" style="edgeLabel;html=1;align=center;verticalAlign=middle;resizable=0;points=[];" vertex="1" connectable="0" parent="8YIe1JZ8c8tA94qx3NWR-32">
          <mxGeometry x="0.3362" y="2" relative="1" as="geometry">
            <mxPoint x="-2" y="-10" as="offset" />
          </mxGeometry>
        </mxCell>
        <mxCell id="8YIe1JZ8c8tA94qx3NWR-34" value="&lt;font style=&quot;font-size: 11px&quot;&gt;Is this&lt;br&gt;process the sum of&lt;br&gt;the totality of processes in a material entity&#39;s spatiotemporal&lt;br&gt;region?&lt;/font&gt;" style="rhombus;whiteSpace=wrap;html=1;strokeColor=#007FFF;" vertex="1" parent="8YIe1JZ8c8tA94qx3NWR-1">
          <mxGeometry x="125" y="495" width="200" height="80" as="geometry" />
        </mxCell>
        <mxCell id="8YIe1JZ8c8tA94qx3NWR-35" value="history" style="rounded=1;whiteSpace=wrap;html=1;" vertex="1" parent="8YIe1JZ8c8tA94qx3NWR-1">
          <mxGeometry x="165" y="615" width="120" height="60" as="geometry" />
        </mxCell>
        <mxCell id="8YIe1JZ8c8tA94qx3NWR-36" style="edgeStyle=none;rounded=0;orthogonalLoop=1;jettySize=auto;html=1;exitX=0;exitY=1;exitDx=0;exitDy=0;entryX=0.5;entryY=0;entryDx=0;entryDy=0;" edge="1" parent="8YIe1JZ8c8tA94qx3NWR-1" source="8YIe1JZ8c8tA94qx3NWR-39" target="8YIe1JZ8c8tA94qx3NWR-41">
          <mxGeometry relative="1" as="geometry">
            <mxPoint x="861.5" y="465" as="sourcePoint" />
          </mxGeometry>
        </mxCell>
        <mxCell id="8YIe1JZ8c8tA94qx3NWR-37" value="1" style="edgeLabel;html=1;align=center;verticalAlign=middle;resizable=0;points=[];" vertex="1" connectable="0" parent="8YIe1JZ8c8tA94qx3NWR-36">
          <mxGeometry x="-0.1044" y="1" relative="1" as="geometry">
            <mxPoint as="offset" />
          </mxGeometry>
        </mxCell>
        <mxCell id="8YIe1JZ8c8tA94qx3NWR-38" value="0" style="edgeStyle=none;rounded=0;orthogonalLoop=1;jettySize=auto;html=1;exitX=1;exitY=1;exitDx=0;exitDy=0;entryX=0.5;entryY=0;entryDx=0;entryDy=0;" edge="1" parent="8YIe1JZ8c8tA94qx3NWR-1" source="8YIe1JZ8c8tA94qx3NWR-39" target="8YIe1JZ8c8tA94qx3NWR-43">
          <mxGeometry relative="1" as="geometry">
            <mxPoint x="946.5" y="465" as="sourcePoint" />
          </mxGeometry>
        </mxCell>
        <mxCell id="8YIe1JZ8c8tA94qx3NWR-39" value="&lt;span&gt;How many&lt;/span&gt;&lt;br&gt;&lt;span&gt;dimensions does this&lt;/span&gt;&lt;br&gt;&lt;span&gt;entity have?&lt;/span&gt;" style="rhombus;whiteSpace=wrap;html=1;strokeColor=#007FFF;" vertex="1" parent="8YIe1JZ8c8tA94qx3NWR-1">
          <mxGeometry x="819" y="383" width="170" height="80" as="geometry" />
        </mxCell>
        <mxCell id="8YIe1JZ8c8tA94qx3NWR-40" value="" style="edgeStyle=orthogonalEdgeStyle;rounded=0;orthogonalLoop=1;jettySize=auto;html=1;" edge="1" parent="8YIe1JZ8c8tA94qx3NWR-1" source="8YIe1JZ8c8tA94qx3NWR-41" target="8YIe1JZ8c8tA94qx3NWR-3">
          <mxGeometry relative="1" as="geometry">
            <mxPoint x="731" y="635" as="targetPoint" />
          </mxGeometry>
        </mxCell>
        <mxCell id="8YIe1JZ8c8tA94qx3NWR-41" value="one-dimensional temporal region" style="rounded=1;whiteSpace=wrap;html=1;" vertex="1" parent="8YIe1JZ8c8tA94qx3NWR-1">
          <mxGeometry x="729" y="505" width="120" height="60" as="geometry" />
        </mxCell>
        <mxCell id="8YIe1JZ8c8tA94qx3NWR-42" value="" style="edgeStyle=orthogonalEdgeStyle;rounded=0;orthogonalLoop=1;jettySize=auto;html=1;entryX=0.5;entryY=0;entryDx=0;entryDy=0;" edge="1" parent="8YIe1JZ8c8tA94qx3NWR-1" source="8YIe1JZ8c8tA94qx3NWR-43" target="8YIe1JZ8c8tA94qx3NWR-2">
          <mxGeometry relative="1" as="geometry">
            <mxPoint x="1004" y="635" as="targetPoint" />
          </mxGeometry>
        </mxCell>
        <mxCell id="8YIe1JZ8c8tA94qx3NWR-43" value="zero-dimensional temporal region" style="rounded=1;whiteSpace=wrap;html=1;" vertex="1" parent="8YIe1JZ8c8tA94qx3NWR-1">
          <mxGeometry x="944" y="505" width="120" height="60" as="geometry" />
        </mxCell>
        <mxCell id="8YIe1JZ8c8tA94qx3NWR-145" value="Yes" style="edgeStyle=orthogonalEdgeStyle;rounded=0;orthogonalLoop=1;jettySize=auto;html=1;exitX=0.5;exitY=1;exitDx=0;exitDy=0;" edge="1" parent="8YIe1JZ8c8tA94qx3NWR-1" source="8YIe1JZ8c8tA94qx3NWR-3" target="8YIe1JZ8c8tA94qx3NWR-146">
          <mxGeometry relative="1" as="geometry">
            <mxPoint x="731" y="715" as="sourcePoint" />
          </mxGeometry>
        </mxCell>
        <mxCell id="8YIe1JZ8c8tA94qx3NWR-146" value="Temporal Interval" style="whiteSpace=wrap;html=1;rounded=1;" vertex="1" parent="8YIe1JZ8c8tA94qx3NWR-1">
          <mxGeometry x="729" y="745" width="120" height="60" as="geometry" />
        </mxCell>
        <mxCell id="8YIe1JZ8c8tA94qx3NWR-147" value="No" style="edgeStyle=orthogonalEdgeStyle;rounded=0;orthogonalLoop=1;jettySize=auto;html=1;" edge="1" parent="8YIe1JZ8c8tA94qx3NWR-1" source="8YIe1JZ8c8tA94qx3NWR-2" target="8YIe1JZ8c8tA94qx3NWR-148">
          <mxGeometry relative="1" as="geometry">
            <mxPoint x="1004" y="715" as="sourcePoint" />
          </mxGeometry>
        </mxCell>
        <mxCell id="8YIe1JZ8c8tA94qx3NWR-148" value="Temporal Instant" style="whiteSpace=wrap;html=1;rounded=1;" vertex="1" parent="8YIe1JZ8c8tA94qx3NWR-1">
          <mxGeometry x="944" y="745" width="120" height="60" as="geometry" />
        </mxCell>
        <mxCell id="8YIe1JZ8c8tA94qx3NWR-149" value="yes" style="edgeStyle=none;rounded=0;orthogonalLoop=1;jettySize=auto;html=1;exitX=0;exitY=1;exitDx=0;exitDy=0;entryX=0.5;entryY=0;entryDx=0;entryDy=0;" edge="1" parent="8YIe1JZ8c8tA94qx3NWR-1" source="8YIe1JZ8c8tA94qx3NWR-150" target="8YIe1JZ8c8tA94qx3NWR-27">
          <mxGeometry relative="1" as="geometry" />
        </mxCell>
        <mxCell id="8YIe1JZ8c8tA94qx3NWR-150" value="Does this entity&lt;br&gt;have a proper temporal&lt;br&gt;part?" style="rhombus;whiteSpace=wrap;html=1;strokeColor=#007FFF;" vertex="1" parent="8YIe1JZ8c8tA94qx3NWR-1">
          <mxGeometry x="235" y="265" width="170" height="80" as="geometry" />
        </mxCell>
      </root>
    </mxGraphModel>
  </diagram>
  <diagram name="continuant" id="lkJ4vV3prKkbNg3oyAQL">
    <mxGraphModel dx="4782" dy="3493" grid="1" gridSize="10" guides="1" tooltips="1" connect="1" arrows="1" fold="1" page="1" pageScale="1" pageWidth="1169" pageHeight="827" math="0" shadow="0">
      <root>
        <mxCell id="fgbM3Grfqc72i7_ngv7H-0" />
        <mxCell id="fgbM3Grfqc72i7_ngv7H-1" parent="fgbM3Grfqc72i7_ngv7H-0" />
        <mxCell id="fgbM3Grfqc72i7_ngv7H-11" style="edgeStyle=none;rounded=0;orthogonalLoop=1;jettySize=auto;html=1;exitX=0.5;exitY=1;exitDx=0;exitDy=0;entryX=0.5;entryY=0;entryDx=0;entryDy=0;" edge="1" parent="fgbM3Grfqc72i7_ngv7H-1" source="fgbM3Grfqc72i7_ngv7H-12" target="fgbM3Grfqc72i7_ngv7H-20">
          <mxGeometry relative="1" as="geometry" />
        </mxCell>
        <mxCell id="fgbM3Grfqc72i7_ngv7H-12" value="continuant" style="rounded=1;whiteSpace=wrap;html=1;" vertex="1" parent="fgbM3Grfqc72i7_ngv7H-1">
          <mxGeometry x="217" y="274" width="120" height="60" as="geometry" />
        </mxCell>
        <mxCell id="fgbM3Grfqc72i7_ngv7H-15" value="generically dependent continuant" style="rounded=1;whiteSpace=wrap;html=1;" vertex="1" parent="fgbM3Grfqc72i7_ngv7H-1">
          <mxGeometry x="547" y="744" width="120" height="60" as="geometry" />
        </mxCell>
        <mxCell id="fgbM3Grfqc72i7_ngv7H-16" style="edgeStyle=none;rounded=0;orthogonalLoop=1;jettySize=auto;html=1;exitX=1;exitY=0.5;exitDx=0;exitDy=0;entryX=0.5;entryY=0;entryDx=0;entryDy=0;" edge="1" parent="fgbM3Grfqc72i7_ngv7H-1" source="fgbM3Grfqc72i7_ngv7H-144" target="fgbM3Grfqc72i7_ngv7H-15">
          <mxGeometry relative="1" as="geometry" />
        </mxCell>
        <mxCell id="fgbM3Grfqc72i7_ngv7H-17" value="Yes" style="edgeLabel;html=1;align=center;verticalAlign=middle;resizable=0;points=[];" vertex="1" connectable="0" parent="fgbM3Grfqc72i7_ngv7H-16">
          <mxGeometry x="-0.0799" y="-1" relative="1" as="geometry">
            <mxPoint as="offset" />
          </mxGeometry>
        </mxCell>
        <mxCell id="fgbM3Grfqc72i7_ngv7H-18" style="edgeStyle=none;rounded=0;orthogonalLoop=1;jettySize=auto;html=1;exitX=0.5;exitY=1;exitDx=0;exitDy=0;" edge="1" parent="fgbM3Grfqc72i7_ngv7H-1" source="fgbM3Grfqc72i7_ngv7H-20" target="fgbM3Grfqc72i7_ngv7H-144">
          <mxGeometry relative="1" as="geometry">
            <mxPoint x="12" y="454" as="sourcePoint" />
          </mxGeometry>
        </mxCell>
        <mxCell id="fgbM3Grfqc72i7_ngv7H-19" value="Yes" style="edgeLabel;html=1;align=center;verticalAlign=middle;resizable=0;points=[];" vertex="1" connectable="0" parent="fgbM3Grfqc72i7_ngv7H-18">
          <mxGeometry x="-0.2623" y="3" relative="1" as="geometry">
            <mxPoint x="-3" y="11" as="offset" />
          </mxGeometry>
        </mxCell>
        <mxCell id="fgbM3Grfqc72i7_ngv7H-20" value="Is this&lt;br&gt;entity a property&lt;br&gt;of another&amp;nbsp;entity or require&lt;br&gt;at least one&lt;br&gt;bearer?" style="rhombus;whiteSpace=wrap;html=1;strokeColor=#007FFF;" vertex="1" parent="fgbM3Grfqc72i7_ngv7H-1">
          <mxGeometry x="192" y="364" width="170" height="80" as="geometry" />
        </mxCell>
        <mxCell id="fgbM3Grfqc72i7_ngv7H-44" value="" style="group" vertex="1" connectable="0" parent="fgbM3Grfqc72i7_ngv7H-1">
          <mxGeometry x="-1155" y="514" width="1130" height="872" as="geometry" />
        </mxCell>
        <mxCell id="fgbM3Grfqc72i7_ngv7H-45" value="independent continuant" style="rounded=1;whiteSpace=wrap;html=1;" vertex="1" parent="fgbM3Grfqc72i7_ngv7H-44">
          <mxGeometry x="637" width="120" height="60" as="geometry" />
        </mxCell>
        <mxCell id="fgbM3Grfqc72i7_ngv7H-46" value="immaterial entity" style="rounded=1;whiteSpace=wrap;html=1;" vertex="1" parent="fgbM3Grfqc72i7_ngv7H-44">
          <mxGeometry x="380" y="230" width="120" height="60" as="geometry" />
        </mxCell>
        <mxCell id="fgbM3Grfqc72i7_ngv7H-47" value="material entity" style="rounded=1;whiteSpace=wrap;html=1;" vertex="1" parent="fgbM3Grfqc72i7_ngv7H-44">
          <mxGeometry x="880" y="230" width="120" height="60" as="geometry" />
        </mxCell>
        <mxCell id="fgbM3Grfqc72i7_ngv7H-48" style="edgeStyle=none;rounded=0;orthogonalLoop=1;jettySize=auto;html=1;exitX=0;exitY=1;exitDx=0;exitDy=0;entryX=0.5;entryY=0;entryDx=0;entryDy=0;" edge="1" parent="fgbM3Grfqc72i7_ngv7H-44" source="fgbM3Grfqc72i7_ngv7H-52" target="fgbM3Grfqc72i7_ngv7H-46">
          <mxGeometry relative="1" as="geometry">
            <mxPoint x="650.5" y="190" as="sourcePoint" />
          </mxGeometry>
        </mxCell>
        <mxCell id="fgbM3Grfqc72i7_ngv7H-49" value="Never" style="edgeLabel;html=1;align=center;verticalAlign=middle;resizable=0;points=[];" vertex="1" connectable="0" parent="fgbM3Grfqc72i7_ngv7H-48">
          <mxGeometry x="-0.1891" y="-1" relative="1" as="geometry">
            <mxPoint as="offset" />
          </mxGeometry>
        </mxCell>
        <mxCell id="fgbM3Grfqc72i7_ngv7H-50" style="edgeStyle=none;rounded=0;orthogonalLoop=1;jettySize=auto;html=1;exitX=1;exitY=1;exitDx=0;exitDy=0;entryX=0.5;entryY=0;entryDx=0;entryDy=0;" edge="1" parent="fgbM3Grfqc72i7_ngv7H-44" source="fgbM3Grfqc72i7_ngv7H-52" target="fgbM3Grfqc72i7_ngv7H-47">
          <mxGeometry relative="1" as="geometry">
            <mxPoint x="743.5000000000009" y="190" as="sourcePoint" />
          </mxGeometry>
        </mxCell>
        <mxCell id="fgbM3Grfqc72i7_ngv7H-51" value="Always" style="edgeLabel;html=1;align=center;verticalAlign=middle;resizable=0;points=[];" vertex="1" connectable="0" parent="fgbM3Grfqc72i7_ngv7H-50">
          <mxGeometry x="-0.1461" y="-1" relative="1" as="geometry">
            <mxPoint x="3" as="offset" />
          </mxGeometry>
        </mxCell>
        <mxCell id="fgbM3Grfqc72i7_ngv7H-52" value="&lt;span&gt;When&lt;br&gt;does&amp;nbsp;&lt;/span&gt;&lt;span&gt;this entity have&lt;/span&gt;&lt;br&gt;&lt;span&gt;some portion of&amp;nbsp;matter as a&lt;/span&gt;&lt;br&gt;&lt;span&gt;continuant&lt;/span&gt;&lt;br&gt;&lt;span&gt;part?&lt;/span&gt;" style="rhombus;whiteSpace=wrap;html=1;strokeColor=#007FFF;" vertex="1" parent="fgbM3Grfqc72i7_ngv7H-44">
          <mxGeometry x="604" y="108" width="186" height="80" as="geometry" />
        </mxCell>
        <mxCell id="fgbM3Grfqc72i7_ngv7H-53" style="edgeStyle=none;rounded=0;orthogonalLoop=1;jettySize=auto;html=1;exitX=0.5;exitY=1;exitDx=0;exitDy=0;entryX=0.5;entryY=0;entryDx=0;entryDy=0;" edge="1" parent="fgbM3Grfqc72i7_ngv7H-44" source="fgbM3Grfqc72i7_ngv7H-45" target="fgbM3Grfqc72i7_ngv7H-52">
          <mxGeometry relative="1" as="geometry" />
        </mxCell>
        <mxCell id="fgbM3Grfqc72i7_ngv7H-54" value="&lt;font&gt;&lt;font style=&quot;font-size: 6px&quot;&gt;&lt;br&gt;&lt;/font&gt;&lt;font style=&quot;font-size: 12px&quot;&gt;Is this entity&#39;s&lt;br&gt;location determined relative&lt;br&gt;to some material&lt;br&gt;entity?&lt;/font&gt;&lt;/font&gt;" style="rhombus;whiteSpace=wrap;html=1;strokeColor=#007FFF;" vertex="1" parent="fgbM3Grfqc72i7_ngv7H-44">
          <mxGeometry x="355" y="330" width="170" height="80" as="geometry" />
        </mxCell>
        <mxCell id="fgbM3Grfqc72i7_ngv7H-55" style="edgeStyle=none;rounded=0;orthogonalLoop=1;jettySize=auto;html=1;exitX=0.5;exitY=1;exitDx=0;exitDy=0;entryX=0.5;entryY=0;entryDx=0;entryDy=0;" edge="1" parent="fgbM3Grfqc72i7_ngv7H-44" source="fgbM3Grfqc72i7_ngv7H-46" target="fgbM3Grfqc72i7_ngv7H-54">
          <mxGeometry relative="1" as="geometry" />
        </mxCell>
        <mxCell id="fgbM3Grfqc72i7_ngv7H-56" value="continuant fiat boundary" style="rounded=1;whiteSpace=wrap;html=1;" vertex="1" parent="fgbM3Grfqc72i7_ngv7H-44">
          <mxGeometry x="143" y="592" width="119" height="60" as="geometry" />
        </mxCell>
        <mxCell id="fgbM3Grfqc72i7_ngv7H-57" style="edgeStyle=none;rounded=0;orthogonalLoop=1;jettySize=auto;html=1;exitX=0;exitY=1;exitDx=0;exitDy=0;entryX=0.5;entryY=0;entryDx=0;entryDy=0;" edge="1" parent="fgbM3Grfqc72i7_ngv7H-44" source="fgbM3Grfqc72i7_ngv7H-54" target="fgbM3Grfqc72i7_ngv7H-106">
          <mxGeometry relative="1" as="geometry">
            <mxPoint x="280" y="460" as="targetPoint" />
          </mxGeometry>
        </mxCell>
        <mxCell id="fgbM3Grfqc72i7_ngv7H-58" value="Yes" style="edgeLabel;html=1;align=center;verticalAlign=middle;resizable=0;points=[];" vertex="1" connectable="0" parent="fgbM3Grfqc72i7_ngv7H-57">
          <mxGeometry x="-0.8091" relative="1" as="geometry">
            <mxPoint x="-73" y="33" as="offset" />
          </mxGeometry>
        </mxCell>
        <mxCell id="fgbM3Grfqc72i7_ngv7H-59" value="site" style="rounded=1;whiteSpace=wrap;html=1;" vertex="1" parent="fgbM3Grfqc72i7_ngv7H-44">
          <mxGeometry x="380" y="592" width="120" height="60" as="geometry" />
        </mxCell>
        <mxCell id="fgbM3Grfqc72i7_ngv7H-60" style="edgeStyle=none;rounded=0;orthogonalLoop=1;jettySize=auto;html=1;exitX=1;exitY=1;exitDx=0;exitDy=0;entryX=0.5;entryY=0;entryDx=0;entryDy=0;" edge="1" parent="fgbM3Grfqc72i7_ngv7H-44" source="fgbM3Grfqc72i7_ngv7H-106" target="fgbM3Grfqc72i7_ngv7H-59">
          <mxGeometry relative="1" as="geometry" />
        </mxCell>
        <mxCell id="fgbM3Grfqc72i7_ngv7H-61" value="3" style="edgeLabel;html=1;align=center;verticalAlign=middle;resizable=0;points=[];" vertex="1" connectable="0" parent="fgbM3Grfqc72i7_ngv7H-60">
          <mxGeometry x="0.0589" y="-1" relative="1" as="geometry">
            <mxPoint x="-3" y="-3" as="offset" />
          </mxGeometry>
        </mxCell>
        <mxCell id="fgbM3Grfqc72i7_ngv7H-62" value="spatial region" style="rounded=1;whiteSpace=wrap;html=1;" vertex="1" parent="fgbM3Grfqc72i7_ngv7H-44">
          <mxGeometry x="617" y="592" width="119" height="60" as="geometry" />
        </mxCell>
        <mxCell id="fgbM3Grfqc72i7_ngv7H-63" style="edgeStyle=none;rounded=0;orthogonalLoop=1;jettySize=auto;html=1;exitX=1;exitY=1;exitDx=0;exitDy=0;entryX=0.5;entryY=0;entryDx=0;entryDy=0;" edge="1" parent="fgbM3Grfqc72i7_ngv7H-44" source="fgbM3Grfqc72i7_ngv7H-54" target="fgbM3Grfqc72i7_ngv7H-111">
          <mxGeometry relative="1" as="geometry" />
        </mxCell>
        <mxCell id="fgbM3Grfqc72i7_ngv7H-64" value="No" style="edgeLabel;html=1;align=center;verticalAlign=middle;resizable=0;points=[];" vertex="1" connectable="0" parent="fgbM3Grfqc72i7_ngv7H-63">
          <mxGeometry x="-0.1519" y="3" relative="1" as="geometry">
            <mxPoint x="14" y="13" as="offset" />
          </mxGeometry>
        </mxCell>
        <mxCell id="fgbM3Grfqc72i7_ngv7H-65" value="" style="rhombus;whiteSpace=wrap;html=1;" vertex="1" parent="fgbM3Grfqc72i7_ngv7H-44">
          <mxGeometry x="118" y="702" width="169" height="80" as="geometry" />
        </mxCell>
        <mxCell id="fgbM3Grfqc72i7_ngv7H-66" style="edgeStyle=none;rounded=0;orthogonalLoop=1;jettySize=auto;html=1;exitX=0.5;exitY=1;exitDx=0;exitDy=0;entryX=0.5;entryY=0;entryDx=0;entryDy=0;" edge="1" parent="fgbM3Grfqc72i7_ngv7H-44" source="fgbM3Grfqc72i7_ngv7H-56" target="fgbM3Grfqc72i7_ngv7H-65">
          <mxGeometry relative="1" as="geometry" />
        </mxCell>
        <mxCell id="fgbM3Grfqc72i7_ngv7H-67" value="fiat line" style="rounded=1;whiteSpace=wrap;html=1;" vertex="1" parent="fgbM3Grfqc72i7_ngv7H-44">
          <mxGeometry x="143" y="832" width="119" height="60" as="geometry" />
        </mxCell>
        <mxCell id="fgbM3Grfqc72i7_ngv7H-68" style="edgeStyle=none;rounded=0;orthogonalLoop=1;jettySize=auto;html=1;exitX=0.5;exitY=1;exitDx=0;exitDy=0;entryX=0.5;entryY=0;entryDx=0;entryDy=0;" edge="1" parent="fgbM3Grfqc72i7_ngv7H-44" source="fgbM3Grfqc72i7_ngv7H-65" target="fgbM3Grfqc72i7_ngv7H-67">
          <mxGeometry relative="1" as="geometry" />
        </mxCell>
        <mxCell id="fgbM3Grfqc72i7_ngv7H-69" value="1" style="edgeLabel;html=1;align=center;verticalAlign=middle;resizable=0;points=[];" vertex="1" connectable="0" parent="fgbM3Grfqc72i7_ngv7H-68">
          <mxGeometry x="-0.0878" relative="1" as="geometry">
            <mxPoint as="offset" />
          </mxGeometry>
        </mxCell>
        <mxCell id="fgbM3Grfqc72i7_ngv7H-70" value="fiat surface" style="rounded=1;whiteSpace=wrap;html=1;" vertex="1" parent="fgbM3Grfqc72i7_ngv7H-44">
          <mxGeometry x="293" y="832" width="119" height="60" as="geometry" />
        </mxCell>
        <mxCell id="fgbM3Grfqc72i7_ngv7H-71" style="edgeStyle=none;rounded=0;orthogonalLoop=1;jettySize=auto;html=1;exitX=1;exitY=1;exitDx=0;exitDy=0;entryX=0.5;entryY=0;entryDx=0;entryDy=0;" edge="1" parent="fgbM3Grfqc72i7_ngv7H-44" source="fgbM3Grfqc72i7_ngv7H-65" target="fgbM3Grfqc72i7_ngv7H-70">
          <mxGeometry relative="1" as="geometry" />
        </mxCell>
        <mxCell id="fgbM3Grfqc72i7_ngv7H-72" value="2" style="edgeLabel;html=1;align=center;verticalAlign=middle;resizable=0;points=[];" vertex="1" connectable="0" parent="fgbM3Grfqc72i7_ngv7H-71">
          <mxGeometry x="-0.2173" y="1" relative="1" as="geometry">
            <mxPoint x="2" y="2" as="offset" />
          </mxGeometry>
        </mxCell>
        <mxCell id="fgbM3Grfqc72i7_ngv7H-73" value="How many&lt;br&gt;dimensions does this&lt;br&gt;entity have?" style="rhombus;whiteSpace=wrap;html=1;strokeColor=#007FFF;" vertex="1" parent="fgbM3Grfqc72i7_ngv7H-44">
          <mxGeometry x="592" y="702" width="169" height="80" as="geometry" />
        </mxCell>
        <mxCell id="fgbM3Grfqc72i7_ngv7H-74" style="edgeStyle=none;rounded=0;orthogonalLoop=1;jettySize=auto;html=1;exitX=0.5;exitY=1;exitDx=0;exitDy=0;entryX=0.5;entryY=0;entryDx=0;entryDy=0;" edge="1" parent="fgbM3Grfqc72i7_ngv7H-44" source="fgbM3Grfqc72i7_ngv7H-62" target="fgbM3Grfqc72i7_ngv7H-73">
          <mxGeometry relative="1" as="geometry" />
        </mxCell>
        <mxCell id="fgbM3Grfqc72i7_ngv7H-75" value="one-dimensional spatial region" style="rounded=1;whiteSpace=wrap;html=1;" vertex="1" parent="fgbM3Grfqc72i7_ngv7H-44">
          <mxGeometry x="430" y="832" width="119" height="60" as="geometry" />
        </mxCell>
        <mxCell id="fgbM3Grfqc72i7_ngv7H-76" style="edgeStyle=none;rounded=0;orthogonalLoop=1;jettySize=auto;html=1;exitX=0;exitY=0.5;exitDx=0;exitDy=0;entryX=0.5;entryY=0;entryDx=0;entryDy=0;" edge="1" parent="fgbM3Grfqc72i7_ngv7H-44" source="fgbM3Grfqc72i7_ngv7H-73" target="fgbM3Grfqc72i7_ngv7H-75">
          <mxGeometry relative="1" as="geometry" />
        </mxCell>
        <mxCell id="fgbM3Grfqc72i7_ngv7H-77" value="1" style="edgeLabel;html=1;align=center;verticalAlign=middle;resizable=0;points=[];" vertex="1" connectable="0" parent="fgbM3Grfqc72i7_ngv7H-76">
          <mxGeometry x="0.0495" y="-1" relative="1" as="geometry">
            <mxPoint x="-4" y="2" as="offset" />
          </mxGeometry>
        </mxCell>
        <mxCell id="fgbM3Grfqc72i7_ngv7H-78" value="two-dimensional spatial region" style="rounded=1;whiteSpace=wrap;html=1;" vertex="1" parent="fgbM3Grfqc72i7_ngv7H-44">
          <mxGeometry x="556" y="832" width="119" height="60" as="geometry" />
        </mxCell>
        <mxCell id="fgbM3Grfqc72i7_ngv7H-79" style="edgeStyle=none;rounded=0;orthogonalLoop=1;jettySize=auto;html=1;exitX=0;exitY=1;exitDx=0;exitDy=0;entryX=0.5;entryY=0;entryDx=0;entryDy=0;" edge="1" parent="fgbM3Grfqc72i7_ngv7H-44" source="fgbM3Grfqc72i7_ngv7H-73" target="fgbM3Grfqc72i7_ngv7H-78">
          <mxGeometry relative="1" as="geometry" />
        </mxCell>
        <mxCell id="fgbM3Grfqc72i7_ngv7H-80" value="2" style="edgeLabel;html=1;align=center;verticalAlign=middle;resizable=0;points=[];" vertex="1" connectable="0" parent="fgbM3Grfqc72i7_ngv7H-79">
          <mxGeometry x="0.0222" y="-1" relative="1" as="geometry">
            <mxPoint as="offset" />
          </mxGeometry>
        </mxCell>
        <mxCell id="fgbM3Grfqc72i7_ngv7H-81" value="three-dimensional spatial region" style="rounded=1;whiteSpace=wrap;html=1;" vertex="1" parent="fgbM3Grfqc72i7_ngv7H-44">
          <mxGeometry x="682" y="832" width="119" height="60" as="geometry" />
        </mxCell>
        <mxCell id="fgbM3Grfqc72i7_ngv7H-82" style="edgeStyle=none;rounded=0;orthogonalLoop=1;jettySize=auto;html=1;entryX=0.5;entryY=0;entryDx=0;entryDy=0;exitX=1;exitY=1;exitDx=0;exitDy=0;" edge="1" parent="fgbM3Grfqc72i7_ngv7H-44" source="fgbM3Grfqc72i7_ngv7H-73" target="fgbM3Grfqc72i7_ngv7H-81">
          <mxGeometry relative="1" as="geometry">
            <mxPoint x="729" y="660" as="sourcePoint" />
          </mxGeometry>
        </mxCell>
        <mxCell id="fgbM3Grfqc72i7_ngv7H-83" value="3" style="edgeLabel;html=1;align=center;verticalAlign=middle;resizable=0;points=[];" vertex="1" connectable="0" parent="fgbM3Grfqc72i7_ngv7H-82">
          <mxGeometry x="-0.0037" relative="1" as="geometry">
            <mxPoint as="offset" />
          </mxGeometry>
        </mxCell>
        <mxCell id="fgbM3Grfqc72i7_ngv7H-84" value="zero-dimensional spatial region" style="rounded=1;whiteSpace=wrap;html=1;" vertex="1" parent="fgbM3Grfqc72i7_ngv7H-44">
          <mxGeometry x="808" y="832" width="119" height="60" as="geometry" />
        </mxCell>
        <mxCell id="fgbM3Grfqc72i7_ngv7H-85" style="edgeStyle=none;rounded=0;orthogonalLoop=1;jettySize=auto;html=1;entryX=0.5;entryY=0;entryDx=0;entryDy=0;exitX=1;exitY=0.5;exitDx=0;exitDy=0;" edge="1" parent="fgbM3Grfqc72i7_ngv7H-44" source="fgbM3Grfqc72i7_ngv7H-73" target="fgbM3Grfqc72i7_ngv7H-84">
          <mxGeometry relative="1" as="geometry" />
        </mxCell>
        <mxCell id="fgbM3Grfqc72i7_ngv7H-86" value="4" style="edgeLabel;html=1;align=center;verticalAlign=middle;resizable=0;points=[];" vertex="1" connectable="0" parent="fgbM3Grfqc72i7_ngv7H-85">
          <mxGeometry x="0.0829" y="-3" relative="1" as="geometry">
            <mxPoint as="offset" />
          </mxGeometry>
        </mxCell>
        <mxCell id="fgbM3Grfqc72i7_ngv7H-87" value="Is the entity&lt;br&gt;a unit of &amp;gt;1 objects or a part&lt;br&gt;of an object?" style="rhombus;whiteSpace=wrap;html=1;strokeColor=#007FFF;" vertex="1" parent="fgbM3Grfqc72i7_ngv7H-44">
          <mxGeometry x="855" y="330" width="170" height="80" as="geometry" />
        </mxCell>
        <mxCell id="fgbM3Grfqc72i7_ngv7H-88" style="edgeStyle=none;rounded=0;orthogonalLoop=1;jettySize=auto;html=1;exitX=0.5;exitY=1;exitDx=0;exitDy=0;entryX=0.5;entryY=0;entryDx=0;entryDy=0;" edge="1" parent="fgbM3Grfqc72i7_ngv7H-44" source="fgbM3Grfqc72i7_ngv7H-47" target="fgbM3Grfqc72i7_ngv7H-87">
          <mxGeometry relative="1" as="geometry" />
        </mxCell>
        <mxCell id="fgbM3Grfqc72i7_ngv7H-89" value="fiat object part" style="rounded=1;whiteSpace=wrap;html=1;" vertex="1" parent="fgbM3Grfqc72i7_ngv7H-44">
          <mxGeometry x="750" y="471" width="120" height="60" as="geometry" />
        </mxCell>
        <mxCell id="fgbM3Grfqc72i7_ngv7H-90" style="edgeStyle=none;rounded=0;orthogonalLoop=1;jettySize=auto;html=1;exitX=0;exitY=1;exitDx=0;exitDy=0;entryX=0.5;entryY=0;entryDx=0;entryDy=0;" edge="1" parent="fgbM3Grfqc72i7_ngv7H-44" source="fgbM3Grfqc72i7_ngv7H-87" target="fgbM3Grfqc72i7_ngv7H-89">
          <mxGeometry relative="1" as="geometry" />
        </mxCell>
        <mxCell id="fgbM3Grfqc72i7_ngv7H-91" value="A proper part" style="edgeLabel;html=1;align=center;verticalAlign=middle;resizable=0;points=[];" vertex="1" connectable="0" parent="fgbM3Grfqc72i7_ngv7H-90">
          <mxGeometry x="-0.0526" y="-1" relative="1" as="geometry">
            <mxPoint as="offset" />
          </mxGeometry>
        </mxCell>
        <mxCell id="fgbM3Grfqc72i7_ngv7H-92" value="object" style="rounded=1;whiteSpace=wrap;html=1;" vertex="1" parent="fgbM3Grfqc72i7_ngv7H-44">
          <mxGeometry x="880" y="471" width="120" height="60" as="geometry" />
        </mxCell>
        <mxCell id="fgbM3Grfqc72i7_ngv7H-93" style="edgeStyle=none;rounded=0;orthogonalLoop=1;jettySize=auto;html=1;exitX=0.5;exitY=1;exitDx=0;exitDy=0;entryX=0.5;entryY=0;entryDx=0;entryDy=0;" edge="1" parent="fgbM3Grfqc72i7_ngv7H-44" source="fgbM3Grfqc72i7_ngv7H-87" target="fgbM3Grfqc72i7_ngv7H-92">
          <mxGeometry relative="1" as="geometry" />
        </mxCell>
        <mxCell id="fgbM3Grfqc72i7_ngv7H-94" value="No&lt;b&gt;*&lt;/b&gt;" style="edgeLabel;html=1;align=center;verticalAlign=middle;resizable=0;points=[];" vertex="1" connectable="0" parent="fgbM3Grfqc72i7_ngv7H-93">
          <mxGeometry x="-0.1191" relative="1" as="geometry">
            <mxPoint as="offset" />
          </mxGeometry>
        </mxCell>
        <mxCell id="fgbM3Grfqc72i7_ngv7H-95" value="object aggregate" style="rounded=1;whiteSpace=wrap;html=1;" vertex="1" parent="fgbM3Grfqc72i7_ngv7H-44">
          <mxGeometry x="1010" y="471" width="120" height="60" as="geometry" />
        </mxCell>
        <mxCell id="fgbM3Grfqc72i7_ngv7H-96" style="edgeStyle=none;rounded=0;orthogonalLoop=1;jettySize=auto;html=1;exitX=1;exitY=1;exitDx=0;exitDy=0;entryX=0.5;entryY=0;entryDx=0;entryDy=0;" edge="1" parent="fgbM3Grfqc72i7_ngv7H-44" source="fgbM3Grfqc72i7_ngv7H-87" target="fgbM3Grfqc72i7_ngv7H-95">
          <mxGeometry relative="1" as="geometry" />
        </mxCell>
        <mxCell id="fgbM3Grfqc72i7_ngv7H-97" value="Unit of objects" style="edgeLabel;html=1;align=center;verticalAlign=middle;resizable=0;points=[];" vertex="1" connectable="0" parent="fgbM3Grfqc72i7_ngv7H-96">
          <mxGeometry x="-0.0901" y="2" relative="1" as="geometry">
            <mxPoint y="2" as="offset" />
          </mxGeometry>
        </mxCell>
        <mxCell id="fgbM3Grfqc72i7_ngv7H-98" value="" style="rhombus;whiteSpace=wrap;html=1;" vertex="1" parent="fgbM3Grfqc72i7_ngv7H-44">
          <mxGeometry x="118" y="702" width="169" height="80" as="geometry" />
        </mxCell>
        <mxCell id="fgbM3Grfqc72i7_ngv7H-99" value="&lt;span&gt;How many&lt;/span&gt;&lt;br&gt;&lt;span&gt;dimensions does this&lt;/span&gt;&lt;br&gt;&lt;span&gt;entity have?&lt;/span&gt;" style="rhombus;whiteSpace=wrap;html=1;strokeColor=#007FFF;" vertex="1" parent="fgbM3Grfqc72i7_ngv7H-44">
          <mxGeometry x="118" y="702" width="169" height="80" as="geometry" />
        </mxCell>
        <mxCell id="fgbM3Grfqc72i7_ngv7H-100" value="fiat point" style="rounded=1;whiteSpace=wrap;html=1;" vertex="1" parent="fgbM3Grfqc72i7_ngv7H-44">
          <mxGeometry x="-7" y="832" width="119" height="60" as="geometry" />
        </mxCell>
        <mxCell id="fgbM3Grfqc72i7_ngv7H-101" style="edgeStyle=none;rounded=0;orthogonalLoop=1;jettySize=auto;html=1;exitX=0;exitY=1;exitDx=0;exitDy=0;entryX=0.5;entryY=0;entryDx=0;entryDy=0;" edge="1" parent="fgbM3Grfqc72i7_ngv7H-44" source="fgbM3Grfqc72i7_ngv7H-65" target="fgbM3Grfqc72i7_ngv7H-100">
          <mxGeometry relative="1" as="geometry" />
        </mxCell>
        <mxCell id="fgbM3Grfqc72i7_ngv7H-102" value="0" style="edgeLabel;html=1;align=center;verticalAlign=middle;resizable=0;points=[];" vertex="1" connectable="0" parent="fgbM3Grfqc72i7_ngv7H-101">
          <mxGeometry x="-0.1634" y="-1" relative="1" as="geometry">
            <mxPoint as="offset" />
          </mxGeometry>
        </mxCell>
        <mxCell id="fgbM3Grfqc72i7_ngv7H-103" value="&lt;div&gt;&lt;b&gt;&lt;font style=&quot;font-size: 12px&quot;&gt;* &lt;/font&gt;&lt;/b&gt;&lt;span style=&quot;font-size: 10px&quot;&gt;The entity is a&lt;/span&gt;&lt;/div&gt;&lt;div&gt;&lt;span style=&quot;font-size: 10px&quot;&gt;maximal instance of a causal&amp;nbsp;&lt;/span&gt;&lt;span style=&quot;font-size: 10px&quot;&gt;unity which it&lt;/span&gt;&lt;/div&gt;&lt;div&gt;&lt;span style=&quot;font-size: 10px&quot;&gt;necessarily&amp;nbsp;&lt;/span&gt;&lt;span style=&quot;font-size: 10px&quot;&gt;manifests.&lt;/span&gt;&lt;/div&gt;" style="text;html=1;strokeColor=none;fillColor=none;align=left;verticalAlign=middle;whiteSpace=wrap;rounded=0;" vertex="1" parent="fgbM3Grfqc72i7_ngv7H-44">
          <mxGeometry x="880" y="531" width="120" height="59" as="geometry" />
        </mxCell>
        <mxCell id="fgbM3Grfqc72i7_ngv7H-104" style="edgeStyle=orthogonalEdgeStyle;rounded=0;orthogonalLoop=1;jettySize=auto;html=1;exitX=0;exitY=1;exitDx=0;exitDy=0;" edge="1" parent="fgbM3Grfqc72i7_ngv7H-44" source="fgbM3Grfqc72i7_ngv7H-106" target="fgbM3Grfqc72i7_ngv7H-56">
          <mxGeometry relative="1" as="geometry" />
        </mxCell>
        <mxCell id="fgbM3Grfqc72i7_ngv7H-105" value="0-2" style="edgeLabel;html=1;align=center;verticalAlign=middle;resizable=0;points=[];" vertex="1" connectable="0" parent="fgbM3Grfqc72i7_ngv7H-104">
          <mxGeometry x="0.0814" y="-1" relative="1" as="geometry">
            <mxPoint y="-3" as="offset" />
          </mxGeometry>
        </mxCell>
        <mxCell id="fgbM3Grfqc72i7_ngv7H-106" value="How many dimensions&lt;br&gt;does this entity have?" style="rhombus;whiteSpace=wrap;html=1;strokeColor=#007FFF;" vertex="1" parent="fgbM3Grfqc72i7_ngv7H-44">
          <mxGeometry x="160" y="461" width="170" height="80" as="geometry" />
        </mxCell>
        <mxCell id="fgbM3Grfqc72i7_ngv7H-107" style="rounded=0;orthogonalLoop=1;jettySize=auto;html=1;exitX=0;exitY=1;exitDx=0;exitDy=0;entryX=0.5;entryY=0;entryDx=0;entryDy=0;" edge="1" parent="fgbM3Grfqc72i7_ngv7H-44" source="fgbM3Grfqc72i7_ngv7H-111" target="fgbM3Grfqc72i7_ngv7H-59">
          <mxGeometry relative="1" as="geometry" />
        </mxCell>
        <mxCell id="fgbM3Grfqc72i7_ngv7H-108" value="No" style="edgeLabel;html=1;align=center;verticalAlign=middle;resizable=0;points=[];" vertex="1" connectable="0" parent="fgbM3Grfqc72i7_ngv7H-107">
          <mxGeometry x="0.0187" relative="1" as="geometry">
            <mxPoint as="offset" />
          </mxGeometry>
        </mxCell>
        <mxCell id="fgbM3Grfqc72i7_ngv7H-109" style="edgeStyle=orthogonalEdgeStyle;rounded=0;orthogonalLoop=1;jettySize=auto;html=1;exitX=1;exitY=1;exitDx=0;exitDy=0;entryX=0.5;entryY=0;entryDx=0;entryDy=0;" edge="1" parent="fgbM3Grfqc72i7_ngv7H-44" source="fgbM3Grfqc72i7_ngv7H-111" target="fgbM3Grfqc72i7_ngv7H-62">
          <mxGeometry relative="1" as="geometry" />
        </mxCell>
        <mxCell id="fgbM3Grfqc72i7_ngv7H-110" value="Yes" style="edgeLabel;html=1;align=center;verticalAlign=middle;resizable=0;points=[];" vertex="1" connectable="0" parent="fgbM3Grfqc72i7_ngv7H-109">
          <mxGeometry x="0.0309" y="-2" relative="1" as="geometry">
            <mxPoint x="2" as="offset" />
          </mxGeometry>
        </mxCell>
        <mxCell id="fgbM3Grfqc72i7_ngv7H-111" value="Is the entity&lt;br&gt;a spatial&amp;nbsp;projection of a&lt;br&gt;portion of space-&lt;br&gt;time?" style="rhombus;whiteSpace=wrap;html=1;strokeColor=#007FFF;" vertex="1" parent="fgbM3Grfqc72i7_ngv7H-44">
          <mxGeometry x="549" y="461" width="170" height="80" as="geometry" />
        </mxCell>
        <mxCell id="fgbM3Grfqc72i7_ngv7H-112" style="edgeStyle=none;rounded=0;orthogonalLoop=1;jettySize=auto;html=1;exitX=0;exitY=0.5;exitDx=0;exitDy=0;entryX=0.5;entryY=0;entryDx=0;entryDy=0;" edge="1" parent="fgbM3Grfqc72i7_ngv7H-1" source="fgbM3Grfqc72i7_ngv7H-20" target="fgbM3Grfqc72i7_ngv7H-45">
          <mxGeometry relative="1" as="geometry" />
        </mxCell>
        <mxCell id="fgbM3Grfqc72i7_ngv7H-113" value="No" style="edgeLabel;html=1;align=center;verticalAlign=middle;resizable=0;points=[];" vertex="1" connectable="0" parent="fgbM3Grfqc72i7_ngv7H-112">
          <mxGeometry x="-0.1098" y="-1" relative="1" as="geometry">
            <mxPoint as="offset" />
          </mxGeometry>
        </mxCell>
        <mxCell id="fgbM3Grfqc72i7_ngv7H-114" value="" style="group" vertex="1" connectable="0" parent="fgbM3Grfqc72i7_ngv7H-1">
          <mxGeometry x="-53" y="710" width="540" height="750" as="geometry" />
        </mxCell>
        <mxCell id="fgbM3Grfqc72i7_ngv7H-115" value="Is it&amp;nbsp;specifically&lt;br&gt;dependent on&amp;nbsp;two or&lt;br&gt;more non-identical &lt;br&gt;entities?" style="rhombus;whiteSpace=wrap;html=1;strokeColor=#007FFF;" vertex="1" parent="fgbM3Grfqc72i7_ngv7H-114">
          <mxGeometry x="330" y="386" width="210" height="80" as="geometry" />
        </mxCell>
        <mxCell id="fgbM3Grfqc72i7_ngv7H-116" value="specifically dependent continual" style="rounded=1;whiteSpace=wrap;html=1;" vertex="1" parent="fgbM3Grfqc72i7_ngv7H-114">
          <mxGeometry x="270" y="34" width="120" height="60" as="geometry" />
        </mxCell>
        <mxCell id="fgbM3Grfqc72i7_ngv7H-117" value="Does the &lt;br&gt;entity require some&lt;br&gt;further&amp;nbsp;process to be &lt;br&gt;realised?" style="rhombus;whiteSpace=wrap;html=1;strokeColor=#007FFF;" vertex="1" parent="fgbM3Grfqc72i7_ngv7H-114">
          <mxGeometry x="245" y="134" width="170" height="80" as="geometry" />
        </mxCell>
        <mxCell id="fgbM3Grfqc72i7_ngv7H-118" style="edgeStyle=none;rounded=0;orthogonalLoop=1;jettySize=auto;html=1;exitX=0.5;exitY=1;exitDx=0;exitDy=0;entryX=0.5;entryY=0;entryDx=0;entryDy=0;" edge="1" parent="fgbM3Grfqc72i7_ngv7H-114" source="fgbM3Grfqc72i7_ngv7H-116" target="fgbM3Grfqc72i7_ngv7H-117">
          <mxGeometry as="geometry" />
        </mxCell>
        <mxCell id="fgbM3Grfqc72i7_ngv7H-119" value="realizable entity" style="rounded=1;whiteSpace=wrap;html=1;" vertex="1" parent="fgbM3Grfqc72i7_ngv7H-114">
          <mxGeometry x="160" y="274" width="120" height="60" as="geometry" />
        </mxCell>
        <mxCell id="fgbM3Grfqc72i7_ngv7H-120" style="edgeStyle=none;rounded=0;orthogonalLoop=1;jettySize=auto;html=1;exitX=0;exitY=1;exitDx=0;exitDy=0;entryX=0.5;entryY=0;entryDx=0;entryDy=0;" edge="1" parent="fgbM3Grfqc72i7_ngv7H-114" source="fgbM3Grfqc72i7_ngv7H-117" target="fgbM3Grfqc72i7_ngv7H-119">
          <mxGeometry as="geometry" />
        </mxCell>
        <mxCell id="fgbM3Grfqc72i7_ngv7H-121" value="Yes" style="edgeLabel;html=1;align=center;verticalAlign=middle;resizable=0;points=[];" vertex="1" connectable="0" parent="fgbM3Grfqc72i7_ngv7H-120">
          <mxGeometry relative="1" as="geometry">
            <mxPoint x="4" y="-4" as="offset" />
          </mxGeometry>
        </mxCell>
        <mxCell id="fgbM3Grfqc72i7_ngv7H-122" value="quality" style="rounded=1;whiteSpace=wrap;html=1;" vertex="1" parent="fgbM3Grfqc72i7_ngv7H-114">
          <mxGeometry x="375" y="274" width="120" height="60" as="geometry" />
        </mxCell>
        <mxCell id="fgbM3Grfqc72i7_ngv7H-123" style="edgeStyle=none;rounded=0;orthogonalLoop=1;jettySize=auto;html=1;exitX=1;exitY=1;exitDx=0;exitDy=0;entryX=0.5;entryY=0;entryDx=0;entryDy=0;" edge="1" parent="fgbM3Grfqc72i7_ngv7H-114" source="fgbM3Grfqc72i7_ngv7H-117" target="fgbM3Grfqc72i7_ngv7H-122">
          <mxGeometry as="geometry" />
        </mxCell>
        <mxCell id="fgbM3Grfqc72i7_ngv7H-124" value="No" style="edgeLabel;html=1;align=center;verticalAlign=middle;resizable=0;points=[];" vertex="1" connectable="0" parent="fgbM3Grfqc72i7_ngv7H-123">
          <mxGeometry relative="1" as="geometry">
            <mxPoint y="-4" as="offset" />
          </mxGeometry>
        </mxCell>
        <mxCell id="fgbM3Grfqc72i7_ngv7H-125" value="relational quality" style="rounded=1;whiteSpace=wrap;html=1;" vertex="1" parent="fgbM3Grfqc72i7_ngv7H-114">
          <mxGeometry x="375" y="516" width="120" height="60" as="geometry" />
        </mxCell>
        <mxCell id="fgbM3Grfqc72i7_ngv7H-126" value="&lt;font style=&quot;font-size: 12px&quot;&gt;Does this entity&lt;br&gt;exist because the bearer is in a specific situation?&lt;/font&gt;" style="rhombus;whiteSpace=wrap;html=1;strokeColor=#007FFF;" vertex="1" parent="fgbM3Grfqc72i7_ngv7H-114">
          <mxGeometry x="120" y="386" width="200" height="80" as="geometry" />
        </mxCell>
        <mxCell id="fgbM3Grfqc72i7_ngv7H-127" style="edgeStyle=none;rounded=0;orthogonalLoop=1;jettySize=auto;html=1;exitX=0.5;exitY=1;exitDx=0;exitDy=0;entryX=0.5;entryY=0;entryDx=0;entryDy=0;" edge="1" parent="fgbM3Grfqc72i7_ngv7H-114" source="fgbM3Grfqc72i7_ngv7H-119" target="fgbM3Grfqc72i7_ngv7H-126">
          <mxGeometry x="15" as="geometry" />
        </mxCell>
        <mxCell id="fgbM3Grfqc72i7_ngv7H-128" value="role" style="rounded=1;whiteSpace=wrap;html=1;" vertex="1" parent="fgbM3Grfqc72i7_ngv7H-114">
          <mxGeometry x="242" y="516" width="120" height="60" as="geometry" />
        </mxCell>
        <mxCell id="fgbM3Grfqc72i7_ngv7H-129" style="edgeStyle=none;rounded=0;orthogonalLoop=1;jettySize=auto;html=1;exitX=1;exitY=1;exitDx=0;exitDy=0;entryX=0.5;entryY=0;entryDx=0;entryDy=0;" edge="1" parent="fgbM3Grfqc72i7_ngv7H-114" source="fgbM3Grfqc72i7_ngv7H-126" target="fgbM3Grfqc72i7_ngv7H-128">
          <mxGeometry x="15" as="geometry">
            <mxPoint x="305" y="514" as="targetPoint" />
          </mxGeometry>
        </mxCell>
        <mxCell id="fgbM3Grfqc72i7_ngv7H-130" value="Yes" style="edgeLabel;html=1;align=center;verticalAlign=middle;resizable=0;points=[];" vertex="1" connectable="0" parent="fgbM3Grfqc72i7_ngv7H-129">
          <mxGeometry relative="1" as="geometry">
            <mxPoint x="-4" y="-5" as="offset" />
          </mxGeometry>
        </mxCell>
        <mxCell id="fgbM3Grfqc72i7_ngv7H-131" value="disposition" style="rounded=1;whiteSpace=wrap;html=1;" vertex="1" parent="fgbM3Grfqc72i7_ngv7H-114">
          <mxGeometry x="79" y="516" width="120" height="60" as="geometry" />
        </mxCell>
        <mxCell id="fgbM3Grfqc72i7_ngv7H-132" style="edgeStyle=none;rounded=0;orthogonalLoop=1;jettySize=auto;html=1;exitX=0;exitY=1;exitDx=0;exitDy=0;entryX=0.5;entryY=0;entryDx=0;entryDy=0;" edge="1" parent="fgbM3Grfqc72i7_ngv7H-114" source="fgbM3Grfqc72i7_ngv7H-126" target="fgbM3Grfqc72i7_ngv7H-131">
          <mxGeometry x="15" as="geometry" />
        </mxCell>
        <mxCell id="fgbM3Grfqc72i7_ngv7H-133" value="No" style="edgeLabel;html=1;align=center;verticalAlign=middle;resizable=0;points=[];" vertex="1" connectable="0" parent="fgbM3Grfqc72i7_ngv7H-132">
          <mxGeometry relative="1" as="geometry">
            <mxPoint x="1" y="-3" as="offset" />
          </mxGeometry>
        </mxCell>
        <mxCell id="fgbM3Grfqc72i7_ngv7H-134" value="Does this entity&lt;br&gt;exist (by evolution or&lt;br&gt;design) to realise specific&lt;br&gt;processes?" style="rhombus;whiteSpace=wrap;html=1;strokeColor=#007FFF;" vertex="1" parent="fgbM3Grfqc72i7_ngv7H-114">
          <mxGeometry x="38" y="626" width="202" height="80" as="geometry" />
        </mxCell>
        <mxCell id="fgbM3Grfqc72i7_ngv7H-135" style="edgeStyle=none;rounded=0;orthogonalLoop=1;jettySize=auto;html=1;exitX=0.5;exitY=1;exitDx=0;exitDy=0;entryX=0.5;entryY=0;entryDx=0;entryDy=0;" edge="1" parent="fgbM3Grfqc72i7_ngv7H-114" source="fgbM3Grfqc72i7_ngv7H-131" target="fgbM3Grfqc72i7_ngv7H-134">
          <mxGeometry x="47" y="65" as="geometry" />
        </mxCell>
        <mxCell id="fgbM3Grfqc72i7_ngv7H-136" value="function" style="rounded=1;whiteSpace=wrap;html=1;" vertex="1" parent="fgbM3Grfqc72i7_ngv7H-114">
          <mxGeometry x="79" y="755" width="120" height="60" as="geometry" />
        </mxCell>
        <mxCell id="fgbM3Grfqc72i7_ngv7H-137" style="edgeStyle=none;rounded=0;orthogonalLoop=1;jettySize=auto;html=1;exitX=0.5;exitY=1;exitDx=0;exitDy=0;entryX=0.5;entryY=0;entryDx=0;entryDy=0;" edge="1" parent="fgbM3Grfqc72i7_ngv7H-114" source="fgbM3Grfqc72i7_ngv7H-134" target="fgbM3Grfqc72i7_ngv7H-136">
          <mxGeometry x="47" y="65" as="geometry" />
        </mxCell>
        <mxCell id="fgbM3Grfqc72i7_ngv7H-138" value="Yes" style="edgeLabel;html=1;align=center;verticalAlign=middle;resizable=0;points=[];" vertex="1" connectable="0" parent="fgbM3Grfqc72i7_ngv7H-137">
          <mxGeometry relative="1" as="geometry">
            <mxPoint y="-6" as="offset" />
          </mxGeometry>
        </mxCell>
        <mxCell id="fgbM3Grfqc72i7_ngv7H-139" style="edgeStyle=none;rounded=0;orthogonalLoop=1;jettySize=auto;html=1;exitX=0.5;exitY=1;exitDx=0;exitDy=0;" edge="1" parent="fgbM3Grfqc72i7_ngv7H-114" source="fgbM3Grfqc72i7_ngv7H-122" target="fgbM3Grfqc72i7_ngv7H-115">
          <mxGeometry relative="1" as="geometry" />
        </mxCell>
        <mxCell id="fgbM3Grfqc72i7_ngv7H-140" style="edgeStyle=none;rounded=0;orthogonalLoop=1;jettySize=auto;html=1;exitX=0.5;exitY=1;exitDx=0;exitDy=0;entryX=0.5;entryY=0;entryDx=0;entryDy=0;" edge="1" parent="fgbM3Grfqc72i7_ngv7H-114" source="fgbM3Grfqc72i7_ngv7H-115" target="fgbM3Grfqc72i7_ngv7H-125">
          <mxGeometry relative="1" as="geometry" />
        </mxCell>
        <mxCell id="fgbM3Grfqc72i7_ngv7H-141" value="Yes" style="edgeLabel;html=1;align=center;verticalAlign=middle;resizable=0;points=[];" vertex="1" connectable="0" parent="fgbM3Grfqc72i7_ngv7H-140">
          <mxGeometry x="-0.1613" relative="1" as="geometry">
            <mxPoint as="offset" />
          </mxGeometry>
        </mxCell>
        <mxCell id="fgbM3Grfqc72i7_ngv7H-142" style="edgeStyle=orthogonalEdgeStyle;rounded=0;orthogonalLoop=1;jettySize=auto;html=1;exitX=0.5;exitY=1;exitDx=0;exitDy=0;" edge="1" parent="fgbM3Grfqc72i7_ngv7H-1" source="fgbM3Grfqc72i7_ngv7H-144" target="fgbM3Grfqc72i7_ngv7H-116">
          <mxGeometry relative="1" as="geometry" />
        </mxCell>
        <mxCell id="fgbM3Grfqc72i7_ngv7H-143" value="No" style="edgeLabel;html=1;align=center;verticalAlign=middle;resizable=0;points=[];" vertex="1" connectable="0" parent="fgbM3Grfqc72i7_ngv7H-142">
          <mxGeometry x="-0.2362" y="1" relative="1" as="geometry">
            <mxPoint x="-1" y="8" as="offset" />
          </mxGeometry>
        </mxCell>
        <mxCell id="fgbM3Grfqc72i7_ngv7H-144" value="May the entity be &lt;br&gt;copied between a number &lt;br&gt;of bearers?" style="rhombus;whiteSpace=wrap;html=1;strokeColor=#007FFF;" vertex="1" parent="fgbM3Grfqc72i7_ngv7H-1">
          <mxGeometry x="192" y="504" width="170" height="80" as="geometry" />
        </mxCell>
      </root>
    </mxGraphModel>
  </diagram>
</mxfile>
